<!--?xml version="1.0" encoding="utf-8"?-->
<!-- Generator: Adobe Illustrator 16.0.0, SVG Export Plug-In . SVG Version: 6.00 Build 0)  -->

<svg version="1.1" xmlns="http://www.w3.org/2000/svg" xmlns:xlink="http://www.w3.org/1999/xlink" x="0px" y="0px" width="325.79px" height="91.053px" viewBox="0 0 325.79 91.053" enable-background="new 0 0 325.79 91.053" xml:space="preserve" style="">
<g id="圖層_2">
</g>
<g id="圖層_1">
	<g>
		<g>
			<path fill="#E8BA3C" stroke="#000000" stroke-width="7" stroke-miterlimit="10" d="M47.198,71.469h-5h-5v-5h-5h-5v5h-5h-5v-5h5
				v-5v-5v-5v-5v-5h-5v-5h5h5v-5v-5v-5v-5h5h5h5h5h5h5h5v5v5v5v5h5h5v5h-5h-5h-5h-5h-5h-5v5h5h5h5h5h5h5v5h-5v5v5h-5v-5v-5h-5h-5v5
				v5h5h5v5h-5h-5v5H47.198z M32.198,46.469h5v-5h-5h-5v5H32.198z M32.198,61.469h5v-5v-5h-5h-5v5v5H32.198z M52.198,36.469h5v-5v-5
				v-5h-5h-5h-5h-5h-5v5v5v5h5h5h5H52.198z M47.198,26.469h5v5h-5h-5h-5v-5h5H47.198z M47.198,66.469h5v-5h-5v-5v-5h-5v5v5v5H47.198
				z M67.198,66.469h5v5h-5h-5v-5H67.198z" class="LbEdRbRy_0"></path>
			<path fill="#E8BA3C" stroke="#000000" stroke-width="7" stroke-miterlimit="10" d="M139.198,71.469v-5v-5v-5v-5v-5v-5h-5h-5v5v5
				v5v5h-5v-5v-5v-5v-5h-5h-5h-5v5h5h5v5h-5v5h5v5h5v5v5h-5v-5v-5h-5v-5h-5v5v5v5h-5v-5v-5h-5v5h-5v-5h5v-5h5v-5h-5h-5v-5h5h5v-5h-5
				h-5v-5h5v-5v-5h-5v-5h5h5v-5h5v5h5h5v5v5v5h5v-5v-5v-5h5h5h5v5h-5h-5v5v5h5h5h5h5v5h-5v5v5v5v5v5v5H139.198z M109.198,36.469h5
				v-5v-5h-5h-5v5v5H109.198z M144.198,16.469h5v5h-5h-5v-5H144.198z" class="LbEdRbRy_1"></path>
			<path fill="#E8BA3C" stroke="#000000" stroke-width="7" stroke-miterlimit="10" d="M176.197,26.469h-5v-5h5V26.469z
				 M176.197,41.469h-5v-5h5V41.469z M171.197,71.469v-5h5v5H171.197z M176.197,31.469v-5h5v5H176.197z M176.197,46.469v-5h5v5
				H176.197z M176.197,66.469v-5h5v5H176.197z M181.197,61.469v-5h5v5H181.197z M191.197,71.469v-5v-5v-5v-5v-5v-5v-5h5h5h5v-5v-5
				v-5v-5h5v5v5v5v5h5h5h5v5v5v5v5v5v5v5h-5h-5v-5h5v-5h-5h-5h-5h-5h-5v5v5H191.197z M196.197,26.469h-5v-5h5V26.469z
				 M196.197,31.469v-5h5v5H196.197z M216.197,46.469h5v-5h-5h-5h-5h-5h-5v5h5h5h5H216.197z M216.197,56.469h5v-5h-5h-5h-5h-5h-5v5
				h5h5h5H216.197z M216.197,31.469v-5h5v5H216.197z M221.197,26.469v-5h5v5H221.197z" class="LbEdRbRy_2"></path>
			<path fill="#E8BA3C" stroke="#000000" stroke-width="7" stroke-miterlimit="10" d="M248.197,71.469v-5h5v5H248.197z
				 M253.197,66.469v-5h5v5H253.197z M278.197,56.469h-5v-5h-5h-5h-5v-5v-5v-5v-5v-5v-5h5h5v-5h5v5h5h5h5h5v5v5v5v5v5v5h-5h-5h-5
				V56.469z M283.197,31.469h5v-5h-5h-5h-5h-5h-5v5h5h5h5H283.197z M283.197,46.469h5v-5v-5h-5h-5h-5h-5h-5v5v5h5h5h5H283.197z
				 M268.197,66.469h-5v-5v-5h5v5V66.469z M288.197,66.469h5v5h-5h-5h-5h-5h-5v-5h5h5h5H288.197z M278.197,61.469v-5h5v5H278.197z
				 M298.197,61.469h-5v-5h5V61.469z M298.197,66.469v-5h5v5H298.197z" class="LbEdRbRy_3"></path>
		</g>
		<g>
			<linearGradient id="SVGID_1_" gradientUnits="userSpaceOnUse" x1="13.6982" y1="43.9688" x2="306.6973" y2="43.9688">
				<stop offset="0" style="stop-color:#52B9B1"></stop>
				<stop offset="0.5" style="stop-color:#FFFFFF"></stop>
				<stop offset="1" style="stop-color:#B65083"></stop>
			</linearGradient>
			<path fill="none" stroke="url(#SVGID_1_)" stroke-width="10" d="M47.198,71.469h-5h-5v-5h-5h-5v5h-5h-5v-5h5v-5v-5v-5v-5v-5h-5
				v-5h5h5v-5v-5v-5v-5h5h5h5h5h5h5h5v5v5v5v5h5h5v5h-5h-5h-5h-5h-5h-5v5h5h5h5h5h5h5v5h-5v5v5h-5v-5v-5h-5h-5v5v5h5h5v5h-5h-5v5
				H47.198z M32.198,46.469h5v-5h-5h-5v5H32.198z M32.198,61.469h5v-5v-5h-5h-5v5v5H32.198z M52.198,36.469h5v-5v-5v-5h-5h-5h-5h-5
				h-5v5v5v5h5h5h5H52.198z M47.198,26.469h5v5h-5h-5h-5v-5h5H47.198z M47.198,66.469h5v-5h-5v-5v-5h-5v5v5v5H47.198z
				 M67.198,66.469h5v5h-5h-5v-5H67.198z" class="LbEdRbRy_4"></path>
			<linearGradient id="SVGID_2_" gradientUnits="userSpaceOnUse" x1="13.6982" y1="43.9688" x2="306.6973" y2="43.9688">
				<stop offset="0" style="stop-color:#52B9B1"></stop>
				<stop offset="0.5" style="stop-color:#FFFFFF"></stop>
				<stop offset="1" style="stop-color:#B65083"></stop>
			</linearGradient>
			<path fill="none" stroke="url(#SVGID_2_)" stroke-width="10" d="M139.198,71.469v-5v-5v-5v-5v-5v-5h-5h-5v5v5v5v5h-5v-5v-5v-5v-5
				h-5h-5h-5v5h5h5v5h-5v5h5v5h5v5v5h-5v-5v-5h-5v-5h-5v5v5v5h-5v-5v-5h-5v5h-5v-5h5v-5h5v-5h-5h-5v-5h5h5v-5h-5h-5v-5h5v-5v-5h-5
				v-5h5h5v-5h5v5h5h5v5v5v5h5v-5v-5v-5h5h5h5v5h-5h-5v5v5h5h5h5h5v5h-5v5v5v5v5v5v5H139.198z M109.198,36.469h5v-5v-5h-5h-5v5v5
				H109.198z M144.198,16.469h5v5h-5h-5v-5H144.198z" class="LbEdRbRy_5"></path>
			<linearGradient id="SVGID_3_" gradientUnits="userSpaceOnUse" x1="13.6982" y1="43.9688" x2="306.6973" y2="43.9688">
				<stop offset="0" style="stop-color:#52B9B1"></stop>
				<stop offset="0.5" style="stop-color:#FFFFFF"></stop>
				<stop offset="1" style="stop-color:#B65083"></stop>
			</linearGradient>
			<path fill="none" stroke="url(#SVGID_3_)" stroke-width="10" d="M176.197,26.469h-5v-5h5V26.469z M176.197,41.469h-5v-5h5V41.469
				z M171.197,71.469v-5h5v5H171.197z M176.197,31.469v-5h5v5H176.197z M176.197,46.469v-5h5v5H176.197z M176.197,66.469v-5h5v5
				H176.197z M181.197,61.469v-5h5v5H181.197z M191.197,71.469v-5v-5v-5v-5v-5v-5v-5h5h5h5v-5v-5v-5v-5h5v5v5v5v5h5h5h5v5v5v5v5v5v5
				v5h-5h-5v-5h5v-5h-5h-5h-5h-5h-5v5v5H191.197z M196.197,26.469h-5v-5h5V26.469z M196.197,31.469v-5h5v5H196.197z M216.197,46.469
				h5v-5h-5h-5h-5h-5h-5v5h5h5h5H216.197z M216.197,56.469h5v-5h-5h-5h-5h-5h-5v5h5h5h5H216.197z M216.197,31.469v-5h5v5H216.197z
				 M221.197,26.469v-5h5v5H221.197z" class="LbEdRbRy_6"></path>
			<linearGradient id="SVGID_4_" gradientUnits="userSpaceOnUse" x1="13.6982" y1="43.9688" x2="306.6973" y2="43.9688">
				<stop offset="0" style="stop-color:#52B9B1"></stop>
				<stop offset="0.5" style="stop-color:#FFFFFF"></stop>
				<stop offset="1" style="stop-color:#B65083"></stop>
			</linearGradient>
			<path fill="none" stroke="url(#SVGID_4_)" stroke-width="10" d="M248.197,71.469v-5h5v5H248.197z M253.197,66.469v-5h5v5H253.197
				z M278.197,56.469h-5v-5h-5h-5h-5v-5v-5v-5v-5v-5v-5h5h5v-5h5v5h5h5h5h5v5v5v5v5v5v5h-5h-5h-5V56.469z M283.197,31.469h5v-5h-5
				h-5h-5h-5h-5v5h5h5h5H283.197z M283.197,46.469h5v-5v-5h-5h-5h-5h-5h-5v5v5h5h5h5H283.197z M268.197,66.469h-5v-5v-5h5v5V66.469z
				 M288.197,66.469h5v5h-5h-5h-5h-5h-5v-5h5h5h5H288.197z M278.197,61.469v-5h5v5H278.197z M298.197,61.469h-5v-5h5V61.469z
				 M298.197,66.469v-5h5v5H298.197z" class="LbEdRbRy_7"></path>
		</g>
		<g>
			<path fill="none" stroke="#FFFFFF" stroke-width="4" d="M47.198,71.469h-5h-5v-5h-5h-5v5h-5h-5v-5h5v-5v-5v-5v-5v-5h-5v-5h5h5v-5
				v-5v-5v-5h5h5h5h5h5h5h5v5v5v5v5h5h5v5h-5h-5h-5h-5h-5h-5v5h5h5h5h5h5h5v5h-5v5v5h-5v-5v-5h-5h-5v5v5h5h5v5h-5h-5v5H47.198z
				 M32.198,46.469h5v-5h-5h-5v5H32.198z M32.198,61.469h5v-5v-5h-5h-5v5v5H32.198z M52.198,36.469h5v-5v-5v-5h-5h-5h-5h-5h-5v5v5v5
				h5h5h5H52.198z M47.198,26.469h5v5h-5h-5h-5v-5h5H47.198z M47.198,66.469h5v-5h-5v-5v-5h-5v5v5v5H47.198z M67.198,66.469h5v5h-5
				h-5v-5H67.198z" class="LbEdRbRy_8"></path>
			<path fill="none" stroke="#FFFFFF" stroke-width="4" d="M139.198,71.469v-5v-5v-5v-5v-5v-5h-5h-5v5v5v5v5h-5v-5v-5v-5v-5h-5h-5
				h-5v5h5h5v5h-5v5h5v5h5v5v5h-5v-5v-5h-5v-5h-5v5v5v5h-5v-5v-5h-5v5h-5v-5h5v-5h5v-5h-5h-5v-5h5h5v-5h-5h-5v-5h5v-5v-5h-5v-5h5h5
				v-5h5v5h5h5v5v5v5h5v-5v-5v-5h5h5h5v5h-5h-5v5v5h5h5h5h5v5h-5v5v5v5v5v5v5H139.198z M109.198,36.469h5v-5v-5h-5h-5v5v5H109.198z
				 M144.198,16.469h5v5h-5h-5v-5H144.198z" class="LbEdRbRy_9"></path>
			<path fill="none" stroke="#FFFFFF" stroke-width="4" d="M176.197,26.469h-5v-5h5V26.469z M176.197,41.469h-5v-5h5V41.469z
				 M171.197,71.469v-5h5v5H171.197z M176.197,31.469v-5h5v5H176.197z M176.197,46.469v-5h5v5H176.197z M176.197,66.469v-5h5v5
				H176.197z M181.197,61.469v-5h5v5H181.197z M191.197,71.469v-5v-5v-5v-5v-5v-5v-5h5h5h5v-5v-5v-5v-5h5v5v5v5v5h5h5h5v5v5v5v5v5v5
				v5h-5h-5v-5h5v-5h-5h-5h-5h-5h-5v5v5H191.197z M196.197,26.469h-5v-5h5V26.469z M196.197,31.469v-5h5v5H196.197z M216.197,46.469
				h5v-5h-5h-5h-5h-5h-5v5h5h5h5H216.197z M216.197,56.469h5v-5h-5h-5h-5h-5h-5v5h5h5h5H216.197z M216.197,31.469v-5h5v5H216.197z
				 M221.197,26.469v-5h5v5H221.197z" class="LbEdRbRy_10"></path>
			<path fill="none" stroke="#FFFFFF" stroke-width="4" d="M248.197,71.469v-5h5v5H248.197z M253.197,66.469v-5h5v5H253.197z
				 M278.197,56.469h-5v-5h-5h-5h-5v-5v-5v-5v-5v-5v-5h5h5v-5h5v5h5h5h5h5v5v5v5v5v5v5h-5h-5h-5V56.469z M283.197,31.469h5v-5h-5h-5
				h-5h-5h-5v5h5h5h5H283.197z M283.197,46.469h5v-5v-5h-5h-5h-5h-5h-5v5v5h5h5h5H283.197z M268.197,66.469h-5v-5v-5h5v5V66.469z
				 M288.197,66.469h5v5h-5h-5h-5h-5h-5v-5h5h5h5H288.197z M278.197,61.469v-5h5v5H278.197z M298.197,61.469h-5v-5h5V61.469z
				 M298.197,66.469v-5h5v5H298.197z" class="LbEdRbRy_11"></path>
		</g>
		<g>
			<path fill="#E8BA3C" d="M47.198,71.469h-5h-5v-5h-5h-5v5h-5h-5v-5h5v-5v-5v-5v-5v-5h-5v-5h5h5v-5v-5v-5v-5h5h5h5h5h5h5h5v5v5v5v5
				h5h5v5h-5h-5h-5h-5h-5h-5v5h5h5h5h5h5h5v5h-5v5v5h-5v-5v-5h-5h-5v5v5h5h5v5h-5h-5v5H47.198z M32.198,46.469h5v-5h-5h-5v5H32.198z
				 M32.198,61.469h5v-5v-5h-5h-5v5v5H32.198z M52.198,36.469h5v-5v-5v-5h-5h-5h-5h-5h-5v5v5v5h5h5h5H52.198z M47.198,26.469h5v5h-5
				h-5h-5v-5h5H47.198z M47.198,66.469h5v-5h-5v-5v-5h-5v5v5v5H47.198z M67.198,66.469h5v5h-5h-5v-5H67.198z" class="LbEdRbRy_12"></path>
			<path fill="#E8BA3C" d="M139.198,71.469v-5v-5v-5v-5v-5v-5h-5h-5v5v5v5v5h-5v-5v-5v-5v-5h-5h-5h-5v5h5h5v5h-5v5h5v5h5v5v5h-5v-5
				v-5h-5v-5h-5v5v5v5h-5v-5v-5h-5v5h-5v-5h5v-5h5v-5h-5h-5v-5h5h5v-5h-5h-5v-5h5v-5v-5h-5v-5h5h5v-5h5v5h5h5v5v5v5h5v-5v-5v-5h5h5
				h5v5h-5h-5v5v5h5h5h5h5v5h-5v5v5v5v5v5v5H139.198z M109.198,36.469h5v-5v-5h-5h-5v5v5H109.198z M144.198,16.469h5v5h-5h-5v-5
				H144.198z" class="LbEdRbRy_13"></path>
			<path fill="#E8BA3C" d="M176.197,26.469h-5v-5h5V26.469z M176.197,41.469h-5v-5h5V41.469z M171.197,71.469v-5h5v5H171.197z
				 M176.197,31.469v-5h5v5H176.197z M176.197,46.469v-5h5v5H176.197z M176.197,66.469v-5h5v5H176.197z M181.197,61.469v-5h5v5
				H181.197z M191.197,71.469v-5v-5v-5v-5v-5v-5v-5h5h5h5v-5v-5v-5v-5h5v5v5v5v5h5h5h5v5v5v5v5v5v5v5h-5h-5v-5h5v-5h-5h-5h-5h-5h-5
				v5v5H191.197z M196.197,26.469h-5v-5h5V26.469z M196.197,31.469v-5h5v5H196.197z M216.197,46.469h5v-5h-5h-5h-5h-5h-5v5h5h5h5
				H216.197z M216.197,56.469h5v-5h-5h-5h-5h-5h-5v5h5h5h5H216.197z M216.197,31.469v-5h5v5H216.197z M221.197,26.469v-5h5v5
				H221.197z" class="LbEdRbRy_14"></path>
			<path fill="#E8BA3C" d="M248.197,71.469v-5h5v5H248.197z M253.197,66.469v-5h5v5H253.197z M278.197,56.469h-5v-5h-5h-5h-5v-5v-5
				v-5v-5v-5v-5h5h5v-5h5v5h5h5h5h5v5v5v5v5v5v5h-5h-5h-5V56.469z M283.197,31.469h5v-5h-5h-5h-5h-5h-5v5h5h5h5H283.197z
				 M283.197,46.469h5v-5v-5h-5h-5h-5h-5h-5v5v5h5h5h5H283.197z M268.197,66.469h-5v-5v-5h5v5V66.469z M288.197,66.469h5v5h-5h-5h-5
				h-5h-5v-5h5h5h5H288.197z M278.197,61.469v-5h5v5H278.197z M298.197,61.469h-5v-5h5V61.469z M298.197,66.469v-5h5v5H298.197z" class="LbEdRbRy_15"></path>
		</g>
	</g>
</g>
<style data-made-with="vivus-instant">.LbEdRbRy_0{stroke-dasharray:610 612;stroke-dashoffset:611;animation:LbEdRbRy_draw_0 6700ms ease-in-out 0ms infinite,LbEdRbRy_fade 6700ms linear 0ms infinite;}.LbEdRbRy_1{stroke-dasharray:570 572;stroke-dashoffset:571;animation:LbEdRbRy_draw_1 6700ms ease-in-out 0ms infinite,LbEdRbRy_fade 6700ms linear 0ms infinite;}.LbEdRbRy_2{stroke-dasharray:550 552;stroke-dashoffset:551;animation:LbEdRbRy_draw_2 6700ms ease-in-out 0ms infinite,LbEdRbRy_fade 6700ms linear 0ms infinite;}.LbEdRbRy_3{stroke-dasharray:471 473;stroke-dashoffset:472;animation:LbEdRbRy_draw_3 6700ms ease-in-out 0ms infinite,LbEdRbRy_fade 6700ms linear 0ms infinite;}.LbEdRbRy_4{stroke-dasharray:610 612;stroke-dashoffset:611;animation:LbEdRbRy_draw_4 6700ms ease-in-out 0ms infinite,LbEdRbRy_fade 6700ms linear 0ms infinite;}.LbEdRbRy_5{stroke-dasharray:570 572;stroke-dashoffset:571;animation:LbEdRbRy_draw_5 6700ms ease-in-out 0ms infinite,LbEdRbRy_fade 6700ms linear 0ms infinite;}.LbEdRbRy_6{stroke-dasharray:550 552;stroke-dashoffset:551;animation:LbEdRbRy_draw_6 6700ms ease-in-out 0ms infinite,LbEdRbRy_fade 6700ms linear 0ms infinite;}.LbEdRbRy_7{stroke-dasharray:471 473;stroke-dashoffset:472;animation:LbEdRbRy_draw_7 6700ms ease-in-out 0ms infinite,LbEdRbRy_fade 6700ms linear 0ms infinite;}.LbEdRbRy_8{stroke-dasharray:610 612;stroke-dashoffset:611;animation:LbEdRbRy_draw_8 6700ms ease-in-out 0ms infinite,LbEdRbRy_fade 6700ms linear 0ms infinite;}.LbEdRbRy_9{stroke-dasharray:570 572;stroke-dashoffset:571;animation:LbEdRbRy_draw_9 6700ms ease-in-out 0ms infinite,LbEdRbRy_fade 6700ms linear 0ms infinite;}.LbEdRbRy_10{stroke-dasharray:550 552;stroke-dashoffset:551;animation:LbEdRbRy_draw_10 6700ms ease-in-out 0ms infinite,LbEdRbRy_fade 6700ms linear 0ms infinite;}.LbEdRbRy_11{stroke-dasharray:471 473;stroke-dashoffset:472;animation:LbEdRbRy_draw_11 6700ms ease-in-out 0ms infinite,LbEdRbRy_fade 6700ms linear 0ms infinite;}.LbEdRbRy_12{stroke-dasharray:610 612;stroke-dashoffset:611;animation:LbEdRbRy_draw_12 6700ms ease-in-out 0ms infinite,LbEdRbRy_fade 6700ms linear 0ms infinite;}.LbEdRbRy_13{stroke-dasharray:570 572;stroke-dashoffset:571;animation:LbEdRbRy_draw_13 6700ms ease-in-out 0ms infinite,LbEdRbRy_fade 6700ms linear 0ms infinite;}.LbEdRbRy_14{stroke-dasharray:550 552;stroke-dashoffset:551;animation:LbEdRbRy_draw_14 6700ms ease-in-out 0ms infinite,LbEdRbRy_fade 6700ms linear 0ms infinite;}.LbEdRbRy_15{stroke-dasharray:471 473;stroke-dashoffset:472;animation:LbEdRbRy_draw_15 6700ms ease-in-out 0ms infinite,LbEdRbRy_fade 6700ms linear 0ms infinite;}@keyframes LbEdRbRy_draw{100%{stroke-dashoffset:0;}}@keyframes LbEdRbRy_fade{0%{stroke-opacity:1;}94.02985074626866%{stroke-opacity:1;}100%{stroke-opacity:0;}}@keyframes LbEdRbRy_draw_0{4.477611940298507%{stroke-dashoffset: 611}34.32835820895522%{ stroke-dashoffset: 0;}100%{ stroke-dashoffset: 0;}}@keyframes LbEdRbRy_draw_1{5.472636815920398%{stroke-dashoffset: 571}35.32338308457712%{ stroke-dashoffset: 0;}100%{ stroke-dashoffset: 0;}}@keyframes LbEdRbRy_draw_2{6.46766169154229%{stroke-dashoffset: 551}36.318407960199%{ stroke-dashoffset: 0;}100%{ stroke-dashoffset: 0;}}@keyframes LbEdRbRy_draw_3{7.462686567164178%{stroke-dashoffset: 472}37.3134328358209%{ stroke-dashoffset: 0;}100%{ stroke-dashoffset: 0;}}@keyframes LbEdRbRy_draw_4{8.45771144278607%{stroke-dashoffset: 611}38.30845771144279%{ stroke-dashoffset: 0;}100%{ stroke-dashoffset: 0;}}@keyframes LbEdRbRy_draw_5{9.45273631840796%{stroke-dashoffset: 571}39.30348258706468%{ stroke-dashoffset: 0;}100%{ stroke-dashoffset: 0;}}@keyframes LbEdRbRy_draw_6{10.44776119402985%{stroke-dashoffset: 551}40.298507462686565%{ stroke-dashoffset: 0;}100%{ stroke-dashoffset: 0;}}@keyframes LbEdRbRy_draw_7{11.442786069651742%{stroke-dashoffset: 472}41.29353233830847%{ stroke-dashoffset: 0;}100%{ stroke-dashoffset: 0;}}@keyframes LbEdRbRy_draw_8{12.437810945273633%{stroke-dashoffset: 611}42.28855721393035%{ stroke-dashoffset: 0;}100%{ stroke-dashoffset: 0;}}@keyframes LbEdRbRy_draw_9{13.432835820895523%{stroke-dashoffset: 571}43.28358208955223%{ stroke-dashoffset: 0;}100%{ stroke-dashoffset: 0;}}@keyframes LbEdRbRy_draw_10{14.427860696517413%{stroke-dashoffset: 551}44.278606965174134%{ stroke-dashoffset: 0;}100%{ stroke-dashoffset: 0;}}@keyframes LbEdRbRy_draw_11{15.422885572139306%{stroke-dashoffset: 472}45.27363184079603%{ stroke-dashoffset: 0;}100%{ stroke-dashoffset: 0;}}@keyframes LbEdRbRy_draw_12{16.417910447761194%{stroke-dashoffset: 611}46.26865671641791%{ stroke-dashoffset: 0;}100%{ stroke-dashoffset: 0;}}@keyframes LbEdRbRy_draw_13{17.412935323383085%{stroke-dashoffset: 571}47.26368159203981%{ stroke-dashoffset: 0;}100%{ stroke-dashoffset: 0;}}@keyframes LbEdRbRy_draw_14{18.40796019900498%{stroke-dashoffset: 551}48.258706467661696%{ stroke-dashoffset: 0;}100%{ stroke-dashoffset: 0;}}@keyframes LbEdRbRy_draw_15{19.402985074626866%{stroke-dashoffset: 472}49.25373134328358%{ stroke-dashoffset: 0;}100%{ stroke-dashoffset: 0;}}</style></svg>
