<!--?xml version="1.0" encoding="utf-8"?-->
<!-- Generator: Adobe Illustrator 16.0.0, SVG Export Plug-In . SVG Version: 6.00 Build 0)  -->

<svg version="1.1" xmlns="http://www.w3.org/2000/svg" xmlns:xlink="http://www.w3.org/1999/xlink" x="0px" y="0px" width="515.263px" height="130.527px" viewBox="0 0 515.263 130.527" enable-background="new 0 0 515.263 130.527" xml:space="preserve" class="" style="">
<g id="圖層_2">
</g>
<g id="圖層_1">
	<g>
		<g>
			<path fill="#E8BA3C" stroke="#000000" stroke-width="7" stroke-miterlimit="10" d="M71.492,107.86h-8.333h-8.333v-8.334h-8.333
				h-8.333v8.334h-8.333h-8.333v-8.334h8.333v-8.333V82.86v-8.333v-8.333V57.86h-8.333v-8.333h8.333h8.333v-8.333V32.86v-8.333
				v-8.333h8.333h8.333h8.333h8.333h8.333h8.333h8.333v8.333v8.333v8.333v8.333h8.333h8.333v8.333h-8.333h-8.333h-8.333h-8.333
				h-8.333h-8.333v8.333h8.333h8.333h8.333h8.333h8.333h8.333v8.333h-8.333v8.333v8.333h-8.333V82.86v-8.333h-8.333h-8.333v8.333
				v8.333h8.333h8.333v8.333h-8.333h-8.333v8.334H71.492z M46.492,66.193h8.333V57.86h-8.333h-8.333v8.333H46.492z M46.492,91.193
				h8.333V82.86v-8.333h-8.333h-8.333v8.333v8.333H46.492z M79.825,49.527h8.333v-8.333V32.86v-8.333h-8.333h-8.333h-8.333h-8.333
				h-8.333v8.333v8.333v8.333h8.333h8.333h8.333H79.825z M71.492,32.86h8.333v8.333h-8.333h-8.333h-8.333V32.86h8.333H71.492z
				 M71.492,99.526h8.333v-8.333h-8.333V82.86v-8.333h-8.333v8.333v8.333v8.333H71.492z M104.825,99.526h8.333v8.334h-8.333h-8.333
				v-8.334H104.825z" class="lWPaWRxe_0"></path>
			<path fill="#E8BA3C" stroke="#000000" stroke-width="7" stroke-miterlimit="10" d="M224.825,107.86v-8.334v-8.333V82.86v-8.333
				v-8.333V57.86h-8.333h-8.333v8.333v8.333v8.333v8.333h-8.334V82.86v-8.333v-8.333V57.86h-8.333h-8.333h-8.334v8.333h8.334h8.333
				v8.333h-8.333v8.333h8.333v8.333h8.333v8.333v8.334h-8.333v-8.334v-8.333h-8.333V82.86h-8.334v8.333v8.333v8.334h-8.333v-8.334
				v-8.333h-8.333v8.333h-8.333v-8.333h8.333V82.86h8.333v-8.333h-8.333h-8.333v-8.333h8.333h8.333V57.86h-8.333h-8.333v-8.333
				h8.333v-8.333V32.86h-8.333v-8.333h8.333h8.333v-8.333h8.333v8.333h8.334h8.333v8.333v8.333v8.333h8.333v-8.333V32.86v-8.333
				h8.334h8.333h8.333v8.333h-8.333h-8.333v8.333v8.333h8.333h8.333h8.334h8.333v8.333h-8.333v8.333v8.333v8.333v8.333v8.333v8.334
				H224.825z M174.825,49.527h8.334v-8.333V32.86h-8.334h-8.333v8.333v8.333H174.825z M233.159,16.193h8.333v8.333h-8.333h-8.334
				v-8.333H233.159z" class="lWPaWRxe_1"></path>
			<path fill="#E8BA3C" stroke="#000000" stroke-width="7" stroke-miterlimit="10" d="M286.492,32.86h-8.334v-8.333h8.334V32.86z
				 M286.492,57.86h-8.334v-8.333h8.334V57.86z M278.158,107.86v-8.334h8.334v8.334H278.158z M286.492,41.193V32.86h8.332v8.333
				H286.492z M286.492,66.193V57.86h8.332v8.333H286.492z M286.492,99.526v-8.333h8.332v8.333H286.492z M294.824,91.193V82.86h8.334
				v8.333H294.824z M311.492,107.86v-8.334v-8.333V82.86v-8.333v-8.333V57.86v-8.333h8.332h8.334h8.334v-8.333V32.86v-8.333v-8.333
				h8.332v8.333v8.333v8.333v8.333h8.334h8.334h8.332v8.333v8.333v8.333v8.333v8.333v8.333v8.334h-8.332h-8.334v-8.334h8.334v-8.333
				h-8.334h-8.334h-8.332h-8.334h-8.334v8.333v8.334H311.492z M319.824,32.86h-8.332v-8.333h8.332V32.86z M319.824,41.193V32.86
				h8.334v8.333H319.824z M353.158,66.193h8.334V57.86h-8.334h-8.334h-8.332h-8.334h-8.334v8.333h8.334h8.334h8.332H353.158z
				 M353.158,82.86h8.334v-8.333h-8.334h-8.334h-8.332h-8.334h-8.334v8.333h8.334h8.334h8.332H353.158z M353.158,41.193V32.86h8.334
				v8.333H353.158z M361.492,32.86v-8.333h8.332v8.333H361.492z" class="lWPaWRxe_2"></path>
			<path fill="#E8BA3C" stroke="#000000" stroke-width="7" stroke-miterlimit="10" d="M406.49,107.86v-8.334h8.334v8.334H406.49z
				 M414.824,99.526v-8.333h8.332v8.333H414.824z M456.49,82.86h-8.334v-8.333h-8.332h-8.334h-8.334v-8.333V57.86v-8.333v-8.333
				V32.86v-8.333h8.334h8.334v-8.333h8.332v8.333h8.334h8.334h8.332h8.334v8.333v8.333v8.333v8.333v8.333v8.333h-8.334h-8.332
				h-8.334V82.86z M464.824,41.193h8.332V32.86h-8.332h-8.334h-8.334h-8.332h-8.334v8.333h8.334h8.332h8.334H464.824z
				 M464.824,66.193h8.332V57.86v-8.333h-8.332h-8.334h-8.334h-8.332h-8.334v8.333v8.333h8.334h8.332h8.334H464.824z
				 M439.824,99.526h-8.334v-8.333V82.86h8.334v8.333V99.526z M473.156,99.526h8.334v8.334h-8.334h-8.332h-8.334h-8.334h-8.332
				v-8.334h8.332h8.334h8.334H473.156z M456.49,91.193V82.86h8.334v8.333H456.49z M489.824,91.193h-8.334V82.86h8.334V91.193z
				 M489.824,99.526v-8.333h8.332v8.333H489.824z" class="lWPaWRxe_3"></path>
		</g>
		<g>
			<linearGradient id="SVGID_1_" gradientUnits="userSpaceOnUse" x1="17.9922" y1="62.0269" x2="501.6563" y2="62.0269">
				<stop offset="0" style="stop-color:#52B9B1"></stop>
				<stop offset="0.5" style="stop-color:#FFFFFF"></stop>
				<stop offset="1" style="stop-color:#B65083"></stop>
			</linearGradient>
			<path fill="none" stroke="url(#SVGID_1_)" stroke-width="15" d="M71.492,107.86h-8.333h-8.333v-8.334h-8.333h-8.333v8.334h-8.333
				h-8.333v-8.334h8.333v-8.333V82.86v-8.333v-8.333V57.86h-8.333v-8.333h8.333h8.333v-8.333V32.86v-8.333v-8.333h8.333h8.333h8.333
				h8.333h8.333h8.333h8.333v8.333v8.333v8.333v8.333h8.333h8.333v8.333h-8.333h-8.333h-8.333h-8.333h-8.333h-8.333v8.333h8.333
				h8.333h8.333h8.333h8.333h8.333v8.333h-8.333v8.333v8.333h-8.333V82.86v-8.333h-8.333h-8.333v8.333v8.333h8.333h8.333v8.333
				h-8.333h-8.333v8.334H71.492z M46.492,66.193h8.333V57.86h-8.333h-8.333v8.333H46.492z M46.492,91.193h8.333V82.86v-8.333h-8.333
				h-8.333v8.333v8.333H46.492z M79.825,49.527h8.333v-8.333V32.86v-8.333h-8.333h-8.333h-8.333h-8.333h-8.333v8.333v8.333v8.333
				h8.333h8.333h8.333H79.825z M71.492,32.86h8.333v8.333h-8.333h-8.333h-8.333V32.86h8.333H71.492z M71.492,99.526h8.333v-8.333
				h-8.333V82.86v-8.333h-8.333v8.333v8.333v8.333H71.492z M104.825,99.526h8.333v8.334h-8.333h-8.333v-8.334H104.825z" class="lWPaWRxe_4"></path>
			<linearGradient id="SVGID_2_" gradientUnits="userSpaceOnUse" x1="17.9922" y1="62.0269" x2="501.6563" y2="62.0269">
				<stop offset="0" style="stop-color:#52B9B1"></stop>
				<stop offset="0.5" style="stop-color:#FFFFFF"></stop>
				<stop offset="1" style="stop-color:#B65083"></stop>
			</linearGradient>
			<path fill="none" stroke="url(#SVGID_2_)" stroke-width="15" d="M224.825,107.86v-8.334v-8.333V82.86v-8.333v-8.333V57.86h-8.333
				h-8.333v8.333v8.333v8.333v8.333h-8.334V82.86v-8.333v-8.333V57.86h-8.333h-8.333h-8.334v8.333h8.334h8.333v8.333h-8.333v8.333
				h8.333v8.333h8.333v8.333v8.334h-8.333v-8.334v-8.333h-8.333V82.86h-8.334v8.333v8.333v8.334h-8.333v-8.334v-8.333h-8.333v8.333
				h-8.333v-8.333h8.333V82.86h8.333v-8.333h-8.333h-8.333v-8.333h8.333h8.333V57.86h-8.333h-8.333v-8.333h8.333v-8.333V32.86
				h-8.333v-8.333h8.333h8.333v-8.333h8.333v8.333h8.334h8.333v8.333v8.333v8.333h8.333v-8.333V32.86v-8.333h8.334h8.333h8.333
				v8.333h-8.333h-8.333v8.333v8.333h8.333h8.333h8.334h8.333v8.333h-8.333v8.333v8.333v8.333v8.333v8.333v8.334H224.825z
				 M174.825,49.527h8.334v-8.333V32.86h-8.334h-8.333v8.333v8.333H174.825z M233.159,16.193h8.333v8.333h-8.333h-8.334v-8.333
				H233.159z" class="lWPaWRxe_5"></path>
			<linearGradient id="SVGID_3_" gradientUnits="userSpaceOnUse" x1="17.9922" y1="62.0269" x2="501.6563" y2="62.0269">
				<stop offset="0" style="stop-color:#52B9B1"></stop>
				<stop offset="0.5" style="stop-color:#FFFFFF"></stop>
				<stop offset="1" style="stop-color:#B65083"></stop>
			</linearGradient>
			<path fill="none" stroke="url(#SVGID_3_)" stroke-width="15" d="M286.492,32.86h-8.334v-8.333h8.334V32.86z M286.492,57.86
				h-8.334v-8.333h8.334V57.86z M278.158,107.86v-8.334h8.334v8.334H278.158z M286.492,41.193V32.86h8.332v8.333H286.492z
				 M286.492,66.193V57.86h8.332v8.333H286.492z M286.492,99.526v-8.333h8.332v8.333H286.492z M294.824,91.193V82.86h8.334v8.333
				H294.824z M311.492,107.86v-8.334v-8.333V82.86v-8.333v-8.333V57.86v-8.333h8.332h8.334h8.334v-8.333V32.86v-8.333v-8.333h8.332
				v8.333v8.333v8.333v8.333h8.334h8.334h8.332v8.333v8.333v8.333v8.333v8.333v8.333v8.334h-8.332h-8.334v-8.334h8.334v-8.333
				h-8.334h-8.334h-8.332h-8.334h-8.334v8.333v8.334H311.492z M319.824,32.86h-8.332v-8.333h8.332V32.86z M319.824,41.193V32.86
				h8.334v8.333H319.824z M353.158,66.193h8.334V57.86h-8.334h-8.334h-8.332h-8.334h-8.334v8.333h8.334h8.334h8.332H353.158z
				 M353.158,82.86h8.334v-8.333h-8.334h-8.334h-8.332h-8.334h-8.334v8.333h8.334h8.334h8.332H353.158z M353.158,41.193V32.86h8.334
				v8.333H353.158z M361.492,32.86v-8.333h8.332v8.333H361.492z" class="lWPaWRxe_6"></path>
			<linearGradient id="SVGID_4_" gradientUnits="userSpaceOnUse" x1="17.9922" y1="62.0269" x2="501.6563" y2="62.0269">
				<stop offset="0" style="stop-color:#52B9B1"></stop>
				<stop offset="0.5" style="stop-color:#FFFFFF"></stop>
				<stop offset="1" style="stop-color:#B65083"></stop>
			</linearGradient>
			<path fill="none" stroke="url(#SVGID_4_)" stroke-width="15" d="M406.49,107.86v-8.334h8.334v8.334H406.49z M414.824,99.526
				v-8.333h8.332v8.333H414.824z M456.49,82.86h-8.334v-8.333h-8.332h-8.334h-8.334v-8.333V57.86v-8.333v-8.333V32.86v-8.333h8.334
				h8.334v-8.333h8.332v8.333h8.334h8.334h8.332h8.334v8.333v8.333v8.333v8.333v8.333v8.333h-8.334h-8.332h-8.334V82.86z
				 M464.824,41.193h8.332V32.86h-8.332h-8.334h-8.334h-8.332h-8.334v8.333h8.334h8.332h8.334H464.824z M464.824,66.193h8.332V57.86
				v-8.333h-8.332h-8.334h-8.334h-8.332h-8.334v8.333v8.333h8.334h8.332h8.334H464.824z M439.824,99.526h-8.334v-8.333V82.86h8.334
				v8.333V99.526z M473.156,99.526h8.334v8.334h-8.334h-8.332h-8.334h-8.334h-8.332v-8.334h8.332h8.334h8.334H473.156z
				 M456.49,91.193V82.86h8.334v8.333H456.49z M489.824,91.193h-8.334V82.86h8.334V91.193z M489.824,99.526v-8.333h8.332v8.333
				H489.824z" class="lWPaWRxe_7"></path>
		</g>
		<g>
			<path fill="none" stroke="#FFFFFF" stroke-width="6" d="M71.492,107.86h-8.333h-8.333v-8.334h-8.333h-8.333v8.334h-8.333h-8.333
				v-8.334h8.333v-8.333V82.86v-8.333v-8.333V57.86h-8.333v-8.333h8.333h8.333v-8.333V32.86v-8.333v-8.333h8.333h8.333h8.333h8.333
				h8.333h8.333h8.333v8.333v8.333v8.333v8.333h8.333h8.333v8.333h-8.333h-8.333h-8.333h-8.333h-8.333h-8.333v8.333h8.333h8.333
				h8.333h8.333h8.333h8.333v8.333h-8.333v8.333v8.333h-8.333V82.86v-8.333h-8.333h-8.333v8.333v8.333h8.333h8.333v8.333h-8.333
				h-8.333v8.334H71.492z M46.492,66.193h8.333V57.86h-8.333h-8.333v8.333H46.492z M46.492,91.193h8.333V82.86v-8.333h-8.333h-8.333
				v8.333v8.333H46.492z M79.825,49.527h8.333v-8.333V32.86v-8.333h-8.333h-8.333h-8.333h-8.333h-8.333v8.333v8.333v8.333h8.333
				h8.333h8.333H79.825z M71.492,32.86h8.333v8.333h-8.333h-8.333h-8.333V32.86h8.333H71.492z M71.492,99.526h8.333v-8.333h-8.333
				V82.86v-8.333h-8.333v8.333v8.333v8.333H71.492z M104.825,99.526h8.333v8.334h-8.333h-8.333v-8.334H104.825z" class="lWPaWRxe_8"></path>
			<path fill="none" stroke="#FFFFFF" stroke-width="6" d="M224.825,107.86v-8.334v-8.333V82.86v-8.333v-8.333V57.86h-8.333h-8.333
				v8.333v8.333v8.333v8.333h-8.334V82.86v-8.333v-8.333V57.86h-8.333h-8.333h-8.334v8.333h8.334h8.333v8.333h-8.333v8.333h8.333
				v8.333h8.333v8.333v8.334h-8.333v-8.334v-8.333h-8.333V82.86h-8.334v8.333v8.333v8.334h-8.333v-8.334v-8.333h-8.333v8.333h-8.333
				v-8.333h8.333V82.86h8.333v-8.333h-8.333h-8.333v-8.333h8.333h8.333V57.86h-8.333h-8.333v-8.333h8.333v-8.333V32.86h-8.333
				v-8.333h8.333h8.333v-8.333h8.333v8.333h8.334h8.333v8.333v8.333v8.333h8.333v-8.333V32.86v-8.333h8.334h8.333h8.333v8.333
				h-8.333h-8.333v8.333v8.333h8.333h8.333h8.334h8.333v8.333h-8.333v8.333v8.333v8.333v8.333v8.333v8.334H224.825z M174.825,49.527
				h8.334v-8.333V32.86h-8.334h-8.333v8.333v8.333H174.825z M233.159,16.193h8.333v8.333h-8.333h-8.334v-8.333H233.159z" class="lWPaWRxe_9"></path>
			<path fill="none" stroke="#FFFFFF" stroke-width="6" d="M286.492,32.86h-8.334v-8.333h8.334V32.86z M286.492,57.86h-8.334v-8.333
				h8.334V57.86z M278.158,107.86v-8.334h8.334v8.334H278.158z M286.492,41.193V32.86h8.332v8.333H286.492z M286.492,66.193V57.86
				h8.332v8.333H286.492z M286.492,99.526v-8.333h8.332v8.333H286.492z M294.824,91.193V82.86h8.334v8.333H294.824z M311.492,107.86
				v-8.334v-8.333V82.86v-8.333v-8.333V57.86v-8.333h8.332h8.334h8.334v-8.333V32.86v-8.333v-8.333h8.332v8.333v8.333v8.333v8.333
				h8.334h8.334h8.332v8.333v8.333v8.333v8.333v8.333v8.333v8.334h-8.332h-8.334v-8.334h8.334v-8.333h-8.334h-8.334h-8.332h-8.334
				h-8.334v8.333v8.334H311.492z M319.824,32.86h-8.332v-8.333h8.332V32.86z M319.824,41.193V32.86h8.334v8.333H319.824z
				 M353.158,66.193h8.334V57.86h-8.334h-8.334h-8.332h-8.334h-8.334v8.333h8.334h8.334h8.332H353.158z M353.158,82.86h8.334v-8.333
				h-8.334h-8.334h-8.332h-8.334h-8.334v8.333h8.334h8.334h8.332H353.158z M353.158,41.193V32.86h8.334v8.333H353.158z
				 M361.492,32.86v-8.333h8.332v8.333H361.492z" class="lWPaWRxe_10"></path>
			<path fill="none" stroke="#FFFFFF" stroke-width="6" d="M406.49,107.86v-8.334h8.334v8.334H406.49z M414.824,99.526v-8.333h8.332
				v8.333H414.824z M456.49,82.86h-8.334v-8.333h-8.332h-8.334h-8.334v-8.333V57.86v-8.333v-8.333V32.86v-8.333h8.334h8.334v-8.333
				h8.332v8.333h8.334h8.334h8.332h8.334v8.333v8.333v8.333v8.333v8.333v8.333h-8.334h-8.332h-8.334V82.86z M464.824,41.193h8.332
				V32.86h-8.332h-8.334h-8.334h-8.332h-8.334v8.333h8.334h8.332h8.334H464.824z M464.824,66.193h8.332V57.86v-8.333h-8.332h-8.334
				h-8.334h-8.332h-8.334v8.333v8.333h8.334h8.332h8.334H464.824z M439.824,99.526h-8.334v-8.333V82.86h8.334v8.333V99.526z
				 M473.156,99.526h8.334v8.334h-8.334h-8.332h-8.334h-8.334h-8.332v-8.334h8.332h8.334h8.334H473.156z M456.49,91.193V82.86h8.334
				v8.333H456.49z M489.824,91.193h-8.334V82.86h8.334V91.193z M489.824,99.526v-8.333h8.332v8.333H489.824z" class="lWPaWRxe_11"></path>
		</g>
		<g>
			<path fill="#E8BA3C" d="M71.492,107.86h-8.333h-8.333v-8.334h-8.333h-8.333v8.334h-8.333h-8.333v-8.334h8.333v-8.333V82.86
				v-8.333v-8.333V57.86h-8.333v-8.333h8.333h8.333v-8.333V32.86v-8.333v-8.333h8.333h8.333h8.333h8.333h8.333h8.333h8.333v8.333
				v8.333v8.333v8.333h8.333h8.333v8.333h-8.333h-8.333h-8.333h-8.333h-8.333h-8.333v8.333h8.333h8.333h8.333h8.333h8.333h8.333
				v8.333h-8.333v8.333v8.333h-8.333V82.86v-8.333h-8.333h-8.333v8.333v8.333h8.333h8.333v8.333h-8.333h-8.333v8.334H71.492z
				 M46.492,66.193h8.333V57.86h-8.333h-8.333v8.333H46.492z M46.492,91.193h8.333V82.86v-8.333h-8.333h-8.333v8.333v8.333H46.492z
				 M79.825,49.527h8.333v-8.333V32.86v-8.333h-8.333h-8.333h-8.333h-8.333h-8.333v8.333v8.333v8.333h8.333h8.333h8.333H79.825z
				 M71.492,32.86h8.333v8.333h-8.333h-8.333h-8.333V32.86h8.333H71.492z M71.492,99.526h8.333v-8.333h-8.333V82.86v-8.333h-8.333
				v8.333v8.333v8.333H71.492z M104.825,99.526h8.333v8.334h-8.333h-8.333v-8.334H104.825z" class="lWPaWRxe_12"></path>
			<path fill="#E8BA3C" d="M224.825,107.86v-8.334v-8.333V82.86v-8.333v-8.333V57.86h-8.333h-8.333v8.333v8.333v8.333v8.333h-8.334
				V82.86v-8.333v-8.333V57.86h-8.333h-8.333h-8.334v8.333h8.334h8.333v8.333h-8.333v8.333h8.333v8.333h8.333v8.333v8.334h-8.333
				v-8.334v-8.333h-8.333V82.86h-8.334v8.333v8.333v8.334h-8.333v-8.334v-8.333h-8.333v8.333h-8.333v-8.333h8.333V82.86h8.333
				v-8.333h-8.333h-8.333v-8.333h8.333h8.333V57.86h-8.333h-8.333v-8.333h8.333v-8.333V32.86h-8.333v-8.333h8.333h8.333v-8.333
				h8.333v8.333h8.334h8.333v8.333v8.333v8.333h8.333v-8.333V32.86v-8.333h8.334h8.333h8.333v8.333h-8.333h-8.333v8.333v8.333h8.333
				h8.333h8.334h8.333v8.333h-8.333v8.333v8.333v8.333v8.333v8.333v8.334H224.825z M174.825,49.527h8.334v-8.333V32.86h-8.334
				h-8.333v8.333v8.333H174.825z M233.159,16.193h8.333v8.333h-8.333h-8.334v-8.333H233.159z" class="lWPaWRxe_13"></path>
			<path fill="#E8BA3C" d="M286.492,32.86h-8.334v-8.333h8.334V32.86z M286.492,57.86h-8.334v-8.333h8.334V57.86z M278.158,107.86
				v-8.334h8.334v8.334H278.158z M286.492,41.193V32.86h8.332v8.333H286.492z M286.492,66.193V57.86h8.332v8.333H286.492z
				 M286.492,99.526v-8.333h8.332v8.333H286.492z M294.824,91.193V82.86h8.334v8.333H294.824z M311.492,107.86v-8.334v-8.333V82.86
				v-8.333v-8.333V57.86v-8.333h8.332h8.334h8.334v-8.333V32.86v-8.333v-8.333h8.332v8.333v8.333v8.333v8.333h8.334h8.334h8.332
				v8.333v8.333v8.333v8.333v8.333v8.333v8.334h-8.332h-8.334v-8.334h8.334v-8.333h-8.334h-8.334h-8.332h-8.334h-8.334v8.333v8.334
				H311.492z M319.824,32.86h-8.332v-8.333h8.332V32.86z M319.824,41.193V32.86h8.334v8.333H319.824z M353.158,66.193h8.334V57.86
				h-8.334h-8.334h-8.332h-8.334h-8.334v8.333h8.334h8.334h8.332H353.158z M353.158,82.86h8.334v-8.333h-8.334h-8.334h-8.332h-8.334
				h-8.334v8.333h8.334h8.334h8.332H353.158z M353.158,41.193V32.86h8.334v8.333H353.158z M361.492,32.86v-8.333h8.332v8.333
				H361.492z" class="lWPaWRxe_14"></path>
			<path fill="#E8BA3C" d="M406.49,107.86v-8.334h8.334v8.334H406.49z M414.824,99.526v-8.333h8.332v8.333H414.824z M456.49,82.86
				h-8.334v-8.333h-8.332h-8.334h-8.334v-8.333V57.86v-8.333v-8.333V32.86v-8.333h8.334h8.334v-8.333h8.332v8.333h8.334h8.334h8.332
				h8.334v8.333v8.333v8.333v8.333v8.333v8.333h-8.334h-8.332h-8.334V82.86z M464.824,41.193h8.332V32.86h-8.332h-8.334h-8.334
				h-8.332h-8.334v8.333h8.334h8.332h8.334H464.824z M464.824,66.193h8.332V57.86v-8.333h-8.332h-8.334h-8.334h-8.332h-8.334v8.333
				v8.333h8.334h8.332h8.334H464.824z M439.824,99.526h-8.334v-8.333V82.86h8.334v8.333V99.526z M473.156,99.526h8.334v8.334h-8.334
				h-8.332h-8.334h-8.334h-8.332v-8.334h8.332h8.334h8.334H473.156z M456.49,91.193V82.86h8.334v8.333H456.49z M489.824,91.193
				h-8.334V82.86h8.334V91.193z M489.824,99.526v-8.333h8.332v8.333H489.824z" class="lWPaWRxe_15"></path>
		</g>
	</g>
</g>
<style data-made-with="vivus-instant">.lWPaWRxe_0{stroke-dasharray:1017 1019;stroke-dashoffset:1018;animation:lWPaWRxe_draw_0 7400ms ease-in-out 0ms infinite,lWPaWRxe_fade 7400ms linear 0ms infinite;}.lWPaWRxe_1{stroke-dasharray:950 952;stroke-dashoffset:951;animation:lWPaWRxe_draw_1 7400ms ease-in-out 0ms infinite,lWPaWRxe_fade 7400ms linear 0ms infinite;}.lWPaWRxe_2{stroke-dasharray:917 919;stroke-dashoffset:918;animation:lWPaWRxe_draw_2 7400ms ease-in-out 0ms infinite,lWPaWRxe_fade 7400ms linear 0ms infinite;}.lWPaWRxe_3{stroke-dasharray:784 786;stroke-dashoffset:785;animation:lWPaWRxe_draw_3 7400ms ease-in-out 0ms infinite,lWPaWRxe_fade 7400ms linear 0ms infinite;}.lWPaWRxe_4{stroke-dasharray:1017 1019;stroke-dashoffset:1018;animation:lWPaWRxe_draw_4 7400ms ease-in-out 0ms infinite,lWPaWRxe_fade 7400ms linear 0ms infinite;}.lWPaWRxe_5{stroke-dasharray:950 952;stroke-dashoffset:951;animation:lWPaWRxe_draw_5 7400ms ease-in-out 0ms infinite,lWPaWRxe_fade 7400ms linear 0ms infinite;}.lWPaWRxe_6{stroke-dasharray:917 919;stroke-dashoffset:918;animation:lWPaWRxe_draw_6 7400ms ease-in-out 0ms infinite,lWPaWRxe_fade 7400ms linear 0ms infinite;}.lWPaWRxe_7{stroke-dasharray:784 786;stroke-dashoffset:785;animation:lWPaWRxe_draw_7 7400ms ease-in-out 0ms infinite,lWPaWRxe_fade 7400ms linear 0ms infinite;}.lWPaWRxe_8{stroke-dasharray:1017 1019;stroke-dashoffset:1018;animation:lWPaWRxe_draw_8 7400ms ease-in-out 0ms infinite,lWPaWRxe_fade 7400ms linear 0ms infinite;}.lWPaWRxe_9{stroke-dasharray:950 952;stroke-dashoffset:951;animation:lWPaWRxe_draw_9 7400ms ease-in-out 0ms infinite,lWPaWRxe_fade 7400ms linear 0ms infinite;}.lWPaWRxe_10{stroke-dasharray:917 919;stroke-dashoffset:918;animation:lWPaWRxe_draw_10 7400ms ease-in-out 0ms infinite,lWPaWRxe_fade 7400ms linear 0ms infinite;}.lWPaWRxe_11{stroke-dasharray:784 786;stroke-dashoffset:785;animation:lWPaWRxe_draw_11 7400ms ease-in-out 0ms infinite,lWPaWRxe_fade 7400ms linear 0ms infinite;}.lWPaWRxe_12{stroke-dasharray:1017 1019;stroke-dashoffset:1018;animation:lWPaWRxe_draw_12 7400ms ease-in-out 0ms infinite,lWPaWRxe_fade 7400ms linear 0ms infinite;}.lWPaWRxe_13{stroke-dasharray:950 952;stroke-dashoffset:951;animation:lWPaWRxe_draw_13 7400ms ease-in-out 0ms infinite,lWPaWRxe_fade 7400ms linear 0ms infinite;}.lWPaWRxe_14{stroke-dasharray:917 919;stroke-dashoffset:918;animation:lWPaWRxe_draw_14 7400ms ease-in-out 0ms infinite,lWPaWRxe_fade 7400ms linear 0ms infinite;}.lWPaWRxe_15{stroke-dasharray:784 786;stroke-dashoffset:785;animation:lWPaWRxe_draw_15 7400ms ease-in-out 0ms infinite,lWPaWRxe_fade 7400ms linear 0ms infinite;}@keyframes lWPaWRxe_draw{100%{stroke-dashoffset:0;}}@keyframes lWPaWRxe_fade{0%{stroke-opacity:1;}93.24324324324324%{stroke-opacity:1;}100%{stroke-opacity:0;}}@keyframes lWPaWRxe_draw_0{4.054054054054054%{stroke-dashoffset: 1018}31.08108108108108%{ stroke-dashoffset: 0;}100%{ stroke-dashoffset: 0;}}@keyframes lWPaWRxe_draw_1{4.954954954954955%{stroke-dashoffset: 951}31.981981981981978%{ stroke-dashoffset: 0;}100%{ stroke-dashoffset: 0;}}@keyframes lWPaWRxe_draw_2{5.855855855855856%{stroke-dashoffset: 918}32.88288288288289%{ stroke-dashoffset: 0;}100%{ stroke-dashoffset: 0;}}@keyframes lWPaWRxe_draw_3{6.756756756756757%{stroke-dashoffset: 785}33.78378378378378%{ stroke-dashoffset: 0;}100%{ stroke-dashoffset: 0;}}@keyframes lWPaWRxe_draw_4{7.6576576576576585%{stroke-dashoffset: 1018}34.68468468468469%{ stroke-dashoffset: 0;}100%{ stroke-dashoffset: 0;}}@keyframes lWPaWRxe_draw_5{8.558558558558559%{stroke-dashoffset: 951}35.58558558558559%{ stroke-dashoffset: 0;}100%{ stroke-dashoffset: 0;}}@keyframes lWPaWRxe_draw_6{9.45945945945946%{stroke-dashoffset: 918}36.486486486486484%{ stroke-dashoffset: 0;}100%{ stroke-dashoffset: 0;}}@keyframes lWPaWRxe_draw_7{10.360360360360362%{stroke-dashoffset: 785}37.38738738738739%{ stroke-dashoffset: 0;}100%{ stroke-dashoffset: 0;}}@keyframes lWPaWRxe_draw_8{11.26126126126126%{stroke-dashoffset: 1018}38.28828828828829%{ stroke-dashoffset: 0;}100%{ stroke-dashoffset: 0;}}@keyframes lWPaWRxe_draw_9{12.162162162162163%{stroke-dashoffset: 951}39.189189189189186%{ stroke-dashoffset: 0;}100%{ stroke-dashoffset: 0;}}@keyframes lWPaWRxe_draw_10{13.063063063063062%{stroke-dashoffset: 918}40.090090090090094%{ stroke-dashoffset: 0;}100%{ stroke-dashoffset: 0;}}@keyframes lWPaWRxe_draw_11{13.963963963963966%{stroke-dashoffset: 785}40.990990990990994%{ stroke-dashoffset: 0;}100%{ stroke-dashoffset: 0;}}@keyframes lWPaWRxe_draw_12{14.864864864864865%{stroke-dashoffset: 1018}41.891891891891895%{ stroke-dashoffset: 0;}100%{ stroke-dashoffset: 0;}}@keyframes lWPaWRxe_draw_13{15.765765765765765%{stroke-dashoffset: 951}42.792792792792795%{ stroke-dashoffset: 0;}100%{ stroke-dashoffset: 0;}}@keyframes lWPaWRxe_draw_14{16.666666666666668%{stroke-dashoffset: 918}43.693693693693696%{ stroke-dashoffset: 0;}100%{ stroke-dashoffset: 0;}}@keyframes lWPaWRxe_draw_15{17.56756756756757%{stroke-dashoffset: 785}44.5945945945946%{ stroke-dashoffset: 0;}100%{ stroke-dashoffset: 0;}}</style></svg>
