<!--?xml version="1.0" encoding="utf-8"?-->
<!-- Generator: Adobe Illustrator 16.0.0, SVG Export Plug-In . SVG Version: 6.00 Build 0)  -->

<svg version="1.1" id="圖層_1" xmlns="http://www.w3.org/2000/svg" xmlns:xlink="http://www.w3.org/1999/xlink" x="0px" y="0px" width="310px" height="87.41px" viewBox="0 0 310 87.41" enable-background="new 0 0 310 87.41" xml:space="preserve" style="">
<g>
	<g>
		<path fill="#DFB43F" d="M12,71.763v-5v-5h5v5v5H12z M62,71.763h-5v-5h5v-5v-5v-5v-5v-5v-5v-5v-5v-5h-5h-5h-5h-5v5v5h5h5v5h-5h-5v5
			h5h5h5v5h-5h-5h-5h-5h-5h-5v-5h5h5v-5h-5h-5v-5h5h5v-5v-5h-5h-5h-5v5v5v5v5v5v5v5v5h-5v-5v-5v-5v-5v-5v-5v-5v-5v-5h5h5h5h5h5h5h5
			h5h5h5v5v5v5v5v5v5v5v5v5v5v5H62z M47,66.763h-5h-5h-5h-5v-5v-5v-5h5h5h5h5h5v5v5v5H47z M42,61.763h5v-5h-5h-5h-5v5h5H42z" class="qVJbryZE_0"></path>
		<path fill="#DFB43F" d="M94,36.763h-5v-5h5V36.763z M104,61.763h-5v-5v-5h-5h-5v-5h5h5h5v5v5V61.763z M89,71.763v-5h5v5H89z
			 M99,21.763h-5v-5h5V21.763z M94,41.763v-5h5v5H94z M94,66.763v-5h5v5H94z M99,26.763v-5h5v5H99z M134,61.763v-5h-5h-5h-5h-5v5h-5
			v-5h5v-5h5v-5h-5h-5v-5h-5v-5v-5h5v-5v-5h5h5v-5h5v5h5h5h5v5v5h5v5v5h-5v-5h-5v5h5v5h-5h-5h-5v5h5h5h5v5v5H134z M109,66.763h-5v-5
			h5V66.763z M114,41.763v-5h-5v5H114z M139,66.763h5v5h-5h-5h-5h-5h-5h-5h-5v-5h5h5h5h5v-5h5v5H139z M129,31.763h5v-5h-5h-5h-5h-5
			v5h5h5H129z M124,41.763h5v-5h-5h-5v5H124z" class="qVJbryZE_1"></path>
		<path fill="#DFB43F" d="M166,71.763v-5v-5v-5v-5v-5v-5v-5h5h5h5v-5v-5h-5h-5h-5v-5h5h5h5h5h5v-5h5v5h5h5h5h5h5v5h-5h-5h-5v5v5h5h5
			h5v5v5v5v5v5v5v5h-5h-5v-5h5v-5v-5h-5h-5v5v5v5h-5h-5h-5h-5h-5v-5v-5v-5v-5h-5v-5h5v-5h-5h-5v5v5h5v5h-5v5v5v5H166z M196,51.763h5
			v-5v-5h-5h-5h-5v5h-5v5h5h5H196z M196,36.763h5v-5v-5h-5h-5h-5v5v5h5H196z M196,66.763h5v-5v-5h-5h-5h-5v5v5h5H196z M211,51.763h5
			v-5v-5h-5h-5v5v5H211z" class="qVJbryZE_2"></path>
		<path fill="#DFB43F" d="M263,71.763h-5h-5h-5h-5v-5v-5v-5v-5v-5h5h5h5h5h5v5v5v5v5v5H263z M258,66.763h5v-5v-5v-5h-5h-5h-5v5v5v5
			h5H258z M283,41.763h-5h-5h-5h-5h-5h-5v-5v-5v-5v-5v-5h5h5h5h5h5h5h5v5v5v5v5v5H283z M278,36.763h5v-5v-5v-5h-5h-5h-5h-5h-5v5v5v5
			h5h5h5H278z M293,71.763h-5h-5h-5h-5v-5v-5v-5v-5v-5h5h5h5h5h5v5v5v5v5v5H293z M288,66.763h5v-5v-5v-5h-5h-5h-5v5v5v5h5H288z" class="qVJbryZE_3"></path>
	</g>
	<g>
		<path fill="none" stroke="#FFFFFF" stroke-width="7" d="M12,71.763v-5v-5h5v5v5H12z M62,71.763h-5v-5h5v-5v-5v-5v-5v-5v-5v-5v-5
			v-5h-5h-5h-5h-5v5v5h5h5v5h-5h-5v5h5h5h5v5h-5h-5h-5h-5h-5h-5v-5h5h5v-5h-5h-5v-5h5h5v-5v-5h-5h-5h-5v5v5v5v5v5v5v5v5h-5v-5v-5v-5
			v-5v-5v-5v-5v-5v-5h5h5h5h5h5h5h5h5h5h5v5v5v5v5v5v5v5v5v5v5v5H62z M47,66.763h-5h-5h-5h-5v-5v-5v-5h5h5h5h5h5v5v5v5H47z
			 M42,61.763h5v-5h-5h-5h-5v5h5H42z" class="qVJbryZE_4"></path>
		<path fill="none" stroke="#FFFFFF" stroke-width="7" d="M94,36.763h-5v-5h5V36.763z M104,61.763h-5v-5v-5h-5h-5v-5h5h5h5v5v5
			V61.763z M89,71.763v-5h5v5H89z M99,21.763h-5v-5h5V21.763z M94,41.763v-5h5v5H94z M94,66.763v-5h5v5H94z M99,26.763v-5h5v5H99z
			 M134,61.763v-5h-5h-5h-5h-5v5h-5v-5h5v-5h5v-5h-5h-5v-5h-5v-5v-5h5v-5v-5h5h5v-5h5v5h5h5h5v5v5h5v5v5h-5v-5h-5v5h5v5h-5h-5h-5v5
			h5h5h5v5v5H134z M109,66.763h-5v-5h5V66.763z M114,41.763v-5h-5v5H114z M139,66.763h5v5h-5h-5h-5h-5h-5h-5h-5v-5h5h5h5h5v-5h5v5
			H139z M129,31.763h5v-5h-5h-5h-5h-5v5h5h5H129z M124,41.763h5v-5h-5h-5v5H124z" class="qVJbryZE_5"></path>
		<path fill="none" stroke="#FFFFFF" stroke-width="7" d="M166,71.763v-5v-5v-5v-5v-5v-5v-5h5h5h5v-5v-5h-5h-5h-5v-5h5h5h5h5h5v-5h5
			v5h5h5h5h5h5v5h-5h-5h-5v5v5h5h5h5v5v5v5v5v5v5v5h-5h-5v-5h5v-5v-5h-5h-5v5v5v5h-5h-5h-5h-5h-5v-5v-5v-5v-5h-5v-5h5v-5h-5h-5v5v5
			h5v5h-5v5v5v5H166z M196,51.763h5v-5v-5h-5h-5h-5v5h-5v5h5h5H196z M196,36.763h5v-5v-5h-5h-5h-5v5v5h5H196z M196,66.763h5v-5v-5
			h-5h-5h-5v5v5h5H196z M211,51.763h5v-5v-5h-5h-5v5v5H211z" class="qVJbryZE_6"></path>
		<path fill="none" stroke="#FFFFFF" stroke-width="7" d="M263,71.763h-5h-5h-5h-5v-5v-5v-5v-5v-5h5h5h5h5h5v5v5v5v5v5H263z
			 M258,66.763h5v-5v-5v-5h-5h-5h-5v5v5v5h5H258z M283,41.763h-5h-5h-5h-5h-5h-5v-5v-5v-5v-5v-5h5h5h5h5h5h5h5v5v5v5v5v5H283z
			 M278,36.763h5v-5v-5v-5h-5h-5h-5h-5h-5v5v5v5h5h5h5H278z M293,71.763h-5h-5h-5h-5v-5v-5v-5v-5v-5h5h5h5h5h5v5v5v5v5v5H293z
			 M288,66.763h5v-5v-5v-5h-5h-5h-5v5v5v5h5H288z" class="qVJbryZE_7"></path>
	</g>
	<g>
		<path fill="#DFB43F" d="M12,71.763v-5v-5h5v5v5H12z M62,71.763h-5v-5h5v-5v-5v-5v-5v-5v-5v-5v-5v-5h-5h-5h-5h-5v5v5h5h5v5h-5h-5v5
			h5h5h5v5h-5h-5h-5h-5h-5h-5v-5h5h5v-5h-5h-5v-5h5h5v-5v-5h-5h-5h-5v5v5v5v5v5v5v5v5h-5v-5v-5v-5v-5v-5v-5v-5v-5v-5h5h5h5h5h5h5h5
			h5h5h5v5v5v5v5v5v5v5v5v5v5v5H62z M47,66.763h-5h-5h-5h-5v-5v-5v-5h5h5h5h5h5v5v5v5H47z M42,61.763h5v-5h-5h-5h-5v5h5H42z" class="qVJbryZE_8"></path>
		<path fill="#DFB43F" d="M94,36.763h-5v-5h5V36.763z M104,61.763h-5v-5v-5h-5h-5v-5h5h5h5v5v5V61.763z M89,71.763v-5h5v5H89z
			 M99,21.763h-5v-5h5V21.763z M94,41.763v-5h5v5H94z M94,66.763v-5h5v5H94z M99,26.763v-5h5v5H99z M134,61.763v-5h-5h-5h-5h-5v5h-5
			v-5h5v-5h5v-5h-5h-5v-5h-5v-5v-5h5v-5v-5h5h5v-5h5v5h5h5h5v5v5h5v5v5h-5v-5h-5v5h5v5h-5h-5h-5v5h5h5h5v5v5H134z M109,66.763h-5v-5
			h5V66.763z M114,41.763v-5h-5v5H114z M139,66.763h5v5h-5h-5h-5h-5h-5h-5h-5v-5h5h5h5h5v-5h5v5H139z M129,31.763h5v-5h-5h-5h-5h-5
			v5h5h5H129z M124,41.763h5v-5h-5h-5v5H124z" class="qVJbryZE_9"></path>
		<path fill="#DFB43F" d="M166,71.763v-5v-5v-5v-5v-5v-5v-5h5h5h5v-5v-5h-5h-5h-5v-5h5h5h5h5h5v-5h5v5h5h5h5h5h5v5h-5h-5h-5v5v5h5h5
			h5v5v5v5v5v5v5v5h-5h-5v-5h5v-5v-5h-5h-5v5v5v5h-5h-5h-5h-5h-5v-5v-5v-5v-5h-5v-5h5v-5h-5h-5v5v5h5v5h-5v5v5v5H166z M196,51.763h5
			v-5v-5h-5h-5h-5v5h-5v5h5h5H196z M196,36.763h5v-5v-5h-5h-5h-5v5v5h5H196z M196,66.763h5v-5v-5h-5h-5h-5v5v5h5H196z M211,51.763h5
			v-5v-5h-5h-5v5v5H211z" class="qVJbryZE_10"></path>
		<path fill="#DFB43F" d="M263,71.763h-5h-5h-5h-5v-5v-5v-5v-5v-5h5h5h5h5h5v5v5v5v5v5H263z M258,66.763h5v-5v-5v-5h-5h-5h-5v5v5v5
			h5H258z M283,41.763h-5h-5h-5h-5h-5h-5v-5v-5v-5v-5v-5h5h5h5h5h5h5h5v5v5v5v5v5H283z M278,36.763h5v-5v-5v-5h-5h-5h-5h-5h-5v5v5v5
			h5h5h5H278z M293,71.763h-5h-5h-5h-5v-5v-5v-5v-5v-5h5h5h5h5h5v5v5v5v5v5H293z M288,66.763h5v-5v-5v-5h-5h-5h-5v5v5v5h5H288z" class="qVJbryZE_11"></path>
	</g>
</g>
<style data-made-with="vivus-instant">.qVJbryZE_0{stroke-dasharray:590 592;stroke-dashoffset:591;animation:qVJbryZE_draw_0 6700ms ease-in-out 0ms infinite,qVJbryZE_fade 6700ms linear 0ms infinite;}.qVJbryZE_1{stroke-dasharray:640 642;stroke-dashoffset:641;animation:qVJbryZE_draw_1 6700ms ease-in-out 0ms infinite,qVJbryZE_fade 6700ms linear 0ms infinite;}.qVJbryZE_2{stroke-dasharray:600 602;stroke-dashoffset:601;animation:qVJbryZE_draw_2 6700ms ease-in-out 0ms infinite,qVJbryZE_fade 6700ms linear 0ms infinite;}.qVJbryZE_3{stroke-dasharray:520 522;stroke-dashoffset:521;animation:qVJbryZE_draw_3 6700ms ease-in-out 0ms infinite,qVJbryZE_fade 6700ms linear 0ms infinite;}.qVJbryZE_4{stroke-dasharray:590 592;stroke-dashoffset:591;animation:qVJbryZE_draw_4 6700ms ease-in-out 0ms infinite,qVJbryZE_fade 6700ms linear 0ms infinite;}.qVJbryZE_5{stroke-dasharray:640 642;stroke-dashoffset:641;animation:qVJbryZE_draw_5 6700ms ease-in-out 0ms infinite,qVJbryZE_fade 6700ms linear 0ms infinite;}.qVJbryZE_6{stroke-dasharray:600 602;stroke-dashoffset:601;animation:qVJbryZE_draw_6 6700ms ease-in-out 0ms infinite,qVJbryZE_fade 6700ms linear 0ms infinite;}.qVJbryZE_7{stroke-dasharray:520 522;stroke-dashoffset:521;animation:qVJbryZE_draw_7 6700ms ease-in-out 0ms infinite,qVJbryZE_fade 6700ms linear 0ms infinite;}.qVJbryZE_8{stroke-dasharray:590 592;stroke-dashoffset:591;animation:qVJbryZE_draw_8 6700ms ease-in-out 0ms infinite,qVJbryZE_fade 6700ms linear 0ms infinite;}.qVJbryZE_9{stroke-dasharray:640 642;stroke-dashoffset:641;animation:qVJbryZE_draw_9 6700ms ease-in-out 0ms infinite,qVJbryZE_fade 6700ms linear 0ms infinite;}.qVJbryZE_10{stroke-dasharray:600 602;stroke-dashoffset:601;animation:qVJbryZE_draw_10 6700ms ease-in-out 0ms infinite,qVJbryZE_fade 6700ms linear 0ms infinite;}.qVJbryZE_11{stroke-dasharray:520 522;stroke-dashoffset:521;animation:qVJbryZE_draw_11 6700ms ease-in-out 0ms infinite,qVJbryZE_fade 6700ms linear 0ms infinite;}@keyframes qVJbryZE_draw{100%{stroke-dashoffset:0;}}@keyframes qVJbryZE_fade{0%{stroke-opacity:1;}94.02985074626866%{stroke-opacity:1;}100%{stroke-opacity:0;}}@keyframes qVJbryZE_draw_0{4.477611940298507%{stroke-dashoffset: 591}34.32835820895522%{ stroke-dashoffset: 0;}100%{ stroke-dashoffset: 0;}}@keyframes qVJbryZE_draw_1{5.834464043419267%{stroke-dashoffset: 641}35.68521031207598%{ stroke-dashoffset: 0;}100%{ stroke-dashoffset: 0;}}@keyframes qVJbryZE_draw_2{7.191316146540028%{stroke-dashoffset: 601}37.042062415196746%{ stroke-dashoffset: 0;}100%{ stroke-dashoffset: 0;}}@keyframes qVJbryZE_draw_3{8.548168249660787%{stroke-dashoffset: 521}38.398914518317504%{ stroke-dashoffset: 0;}100%{ stroke-dashoffset: 0;}}@keyframes qVJbryZE_draw_4{9.905020352781547%{stroke-dashoffset: 591}39.75576662143826%{ stroke-dashoffset: 0;}100%{ stroke-dashoffset: 0;}}@keyframes qVJbryZE_draw_5{11.261872455902305%{stroke-dashoffset: 641}41.11261872455903%{ stroke-dashoffset: 0;}100%{ stroke-dashoffset: 0;}}@keyframes qVJbryZE_draw_6{12.618724559023068%{stroke-dashoffset: 601}42.469470827679785%{ stroke-dashoffset: 0;}100%{ stroke-dashoffset: 0;}}@keyframes qVJbryZE_draw_7{13.975576662143826%{stroke-dashoffset: 521}43.82632293080054%{ stroke-dashoffset: 0;}100%{ stroke-dashoffset: 0;}}@keyframes qVJbryZE_draw_8{15.332428765264586%{stroke-dashoffset: 591}45.183175033921295%{ stroke-dashoffset: 0;}100%{ stroke-dashoffset: 0;}}@keyframes qVJbryZE_draw_9{16.689280868385342%{stroke-dashoffset: 641}46.54002713704206%{ stroke-dashoffset: 0;}100%{ stroke-dashoffset: 0;}}@keyframes qVJbryZE_draw_10{18.046132971506104%{stroke-dashoffset: 601}47.89687924016282%{ stroke-dashoffset: 0;}100%{ stroke-dashoffset: 0;}}@keyframes qVJbryZE_draw_11{19.402985074626866%{stroke-dashoffset: 521}49.25373134328358%{ stroke-dashoffset: 0;}100%{ stroke-dashoffset: 0;}}</style></svg>
