<!--?xml version="1.0" encoding="utf-8"?-->
<!-- Generator: Adobe Illustrator 16.0.0, SVG Export Plug-In . SVG Version: 6.00 Build 0)  -->

<svg version="1.1" id="圖層_1" xmlns="http://www.w3.org/2000/svg" xmlns:xlink="http://www.w3.org/1999/xlink" x="0px" y="0px" width="325.79px" height="91.053px" viewBox="0 0 325.79 91.053" enable-background="new 0 0 325.79 91.053" xml:space="preserve" style="">
<g>
	<g>
		<path fill="#E8BA3C" stroke="#000000" stroke-width="7" stroke-miterlimit="10" d="M46.198,72.219h-5h-5v-5h-5h-5v5h-5h-5v-5h5v-5
			v-5v-5v-5v-5h-5v-5h5h5v-5v-5v-5v-5h5h5h5h5h5h5h5v5v5v5v5h5h5v5h-5h-5h-5h-5h-5h-5v5h5h5h5h5h5h5v5h-5v5v5h-5v-5v-5h-5h-5v5v5h5
			h5v5h-5h-5v5H46.198z M31.198,47.219h5v-5h-5h-5v5H31.198z M31.198,62.219h5v-5v-5h-5h-5v5v5H31.198z M51.198,37.219h5v-5v-5v-5
			h-5h-5h-5h-5h-5v5v5v5h5h5h5H51.198z M46.198,27.219h5v5h-5h-5h-5v-5h5H46.198z M46.198,67.219h5v-5h-5v-5v-5h-5v5v5v5H46.198z
			 M66.198,67.219h5v5h-5h-5v-5H66.198z" class="XnXgPPNC_0"></path>
		<path fill="#E8BA3C" stroke="#000000" stroke-width="7" stroke-miterlimit="10" d="M138.198,72.219v-5v-5v-5v-5v-5v-5h-5h-5v5v5v5
			v5h-5v-5v-5v-5v-5h-5h-5h-5v5h5h5v5h-5v5h5v5h5v5v5h-5v-5v-5h-5v-5h-5v5v5v5h-5v-5v-5h-5v5h-5v-5h5v-5h5v-5h-5h-5v-5h5h5v-5h-5h-5
			v-5h5v-5v-5h-5v-5h5h5v-5h5v5h5h5v5v5v5h5v-5v-5v-5h5h5h5v5h-5h-5v5v5h5h5h5h5v5h-5v5v5v5v5v5v5H138.198z M108.198,37.219h5v-5v-5
			h-5h-5v5v5H108.198z M143.198,17.219h5v5h-5h-5v-5H143.198z" class="XnXgPPNC_1"></path>
		<path fill="#E8BA3C" stroke="#000000" stroke-width="7" stroke-miterlimit="10" d="M175.197,27.219h-5v-5h5V27.219z
			 M175.197,42.219h-5v-5h5V42.219z M170.197,72.219v-5h5v5H170.197z M175.197,32.219v-5h5v5H175.197z M175.197,47.219v-5h5v5
			H175.197z M175.197,67.219v-5h5v5H175.197z M180.197,62.219v-5h5v5H180.197z M190.197,72.219v-5v-5v-5v-5v-5v-5v-5h5h5h5v-5v-5v-5
			v-5h5v5v5v5v5h5h5h5v5v5v5v5v5v5v5h-5h-5v-5h5v-5h-5h-5h-5h-5h-5v5v5H190.197z M195.197,27.219h-5v-5h5V27.219z M195.197,32.219
			v-5h5v5H195.197z M215.197,47.219h5v-5h-5h-5h-5h-5h-5v5h5h5h5H215.197z M215.197,57.219h5v-5h-5h-5h-5h-5h-5v5h5h5h5H215.197z
			 M215.197,32.219v-5h5v5H215.197z M220.197,27.219v-5h5v5H220.197z" class="XnXgPPNC_2"></path>
		<path fill="#E8BA3C" stroke="#000000" stroke-width="7" stroke-miterlimit="10" d="M247.197,72.219v-5h5v5H247.197z
			 M252.197,67.219v-5h5v5H252.197z M277.197,57.219h-5v-5h-5h-5h-5v-5v-5v-5v-5v-5v-5h5h5v-5h5v5h5h5h5h5v5v5v5v5v5v5h-5h-5h-5
			V57.219z M282.197,32.219h5v-5h-5h-5h-5h-5h-5v5h5h5h5H282.197z M282.197,47.219h5v-5v-5h-5h-5h-5h-5h-5v5v5h5h5h5H282.197z
			 M267.197,67.219h-5v-5v-5h5v5V67.219z M287.197,67.219h5v5h-5h-5h-5h-5h-5v-5h5h5h5H287.197z M277.197,62.219v-5h5v5H277.197z
			 M297.197,62.219h-5v-5h5V62.219z M297.197,67.219v-5h5v5H297.197z" class="XnXgPPNC_3"></path>
	</g>
	<g>
		<path fill="none" stroke="#E8BA3C" stroke-width="8" d="M46.198,72.219h-5h-5v-5h-5h-5v5h-5h-5v-5h5v-5v-5v-5v-5v-5h-5v-5h5h5v-5
			v-5v-5v-5h5h5h5h5h5h5h5v5v5v5v5h5h5v5h-5h-5h-5h-5h-5h-5v5h5h5h5h5h5h5v5h-5v5v5h-5v-5v-5h-5h-5v5v5h5h5v5h-5h-5v5H46.198z
			 M31.198,47.219h5v-5h-5h-5v5H31.198z M31.198,62.219h5v-5v-5h-5h-5v5v5H31.198z M51.198,37.219h5v-5v-5v-5h-5h-5h-5h-5h-5v5v5v5
			h5h5h5H51.198z M46.198,27.219h5v5h-5h-5h-5v-5h5H46.198z M46.198,67.219h5v-5h-5v-5v-5h-5v5v5v5H46.198z M66.198,67.219h5v5h-5
			h-5v-5H66.198z" class="XnXgPPNC_4"></path>
		<path fill="none" stroke="#E8BA3C" stroke-width="8" d="M138.198,72.219v-5v-5v-5v-5v-5v-5h-5h-5v5v5v5v5h-5v-5v-5v-5v-5h-5h-5h-5
			v5h5h5v5h-5v5h5v5h5v5v5h-5v-5v-5h-5v-5h-5v5v5v5h-5v-5v-5h-5v5h-5v-5h5v-5h5v-5h-5h-5v-5h5h5v-5h-5h-5v-5h5v-5v-5h-5v-5h5h5v-5h5
			v5h5h5v5v5v5h5v-5v-5v-5h5h5h5v5h-5h-5v5v5h5h5h5h5v5h-5v5v5v5v5v5v5H138.198z M108.198,37.219h5v-5v-5h-5h-5v5v5H108.198z
			 M143.198,17.219h5v5h-5h-5v-5H143.198z" class="XnXgPPNC_5"></path>
		<path fill="none" stroke="#E8BA3C" stroke-width="8" d="M175.197,27.219h-5v-5h5V27.219z M175.197,42.219h-5v-5h5V42.219z
			 M170.197,72.219v-5h5v5H170.197z M175.197,32.219v-5h5v5H175.197z M175.197,47.219v-5h5v5H175.197z M175.197,67.219v-5h5v5
			H175.197z M180.197,62.219v-5h5v5H180.197z M190.197,72.219v-5v-5v-5v-5v-5v-5v-5h5h5h5v-5v-5v-5v-5h5v5v5v5v5h5h5h5v5v5v5v5v5v5
			v5h-5h-5v-5h5v-5h-5h-5h-5h-5h-5v5v5H190.197z M195.197,27.219h-5v-5h5V27.219z M195.197,32.219v-5h5v5H195.197z M215.197,47.219
			h5v-5h-5h-5h-5h-5h-5v5h5h5h5H215.197z M215.197,57.219h5v-5h-5h-5h-5h-5h-5v5h5h5h5H215.197z M215.197,32.219v-5h5v5H215.197z
			 M220.197,27.219v-5h5v5H220.197z" class="XnXgPPNC_6"></path>
		<path fill="none" stroke="#E8BA3C" stroke-width="8" d="M247.197,72.219v-5h5v5H247.197z M252.197,67.219v-5h5v5H252.197z
			 M277.197,57.219h-5v-5h-5h-5h-5v-5v-5v-5v-5v-5v-5h5h5v-5h5v5h5h5h5h5v5v5v5v5v5v5h-5h-5h-5V57.219z M282.197,32.219h5v-5h-5h-5
			h-5h-5h-5v5h5h5h5H282.197z M282.197,47.219h5v-5v-5h-5h-5h-5h-5h-5v5v5h5h5h5H282.197z M267.197,67.219h-5v-5v-5h5v5V67.219z
			 M287.197,67.219h5v5h-5h-5h-5h-5h-5v-5h5h5h5H287.197z M277.197,62.219v-5h5v5H277.197z M297.197,62.219h-5v-5h5V62.219z
			 M297.197,67.219v-5h5v5H297.197z" class="XnXgPPNC_7"></path>
	</g>
	<g>
		<path fill="#FFFFFF" d="M46.198,72.219h-5h-5v-5h-5h-5v5h-5h-5v-5h5v-5v-5v-5v-5v-5h-5v-5h5h5v-5v-5v-5v-5h5h5h5h5h5h5h5v5v5v5v5
			h5h5v5h-5h-5h-5h-5h-5h-5v5h5h5h5h5h5h5v5h-5v5v5h-5v-5v-5h-5h-5v5v5h5h5v5h-5h-5v5H46.198z M31.198,47.219h5v-5h-5h-5v5H31.198z
			 M31.198,62.219h5v-5v-5h-5h-5v5v5H31.198z M51.198,37.219h5v-5v-5v-5h-5h-5h-5h-5h-5v5v5v5h5h5h5H51.198z M46.198,27.219h5v5h-5
			h-5h-5v-5h5H46.198z M46.198,67.219h5v-5h-5v-5v-5h-5v5v5v5H46.198z M66.198,67.219h5v5h-5h-5v-5H66.198z" class="XnXgPPNC_8"></path>
		<path fill="#FFFFFF" d="M138.198,72.219v-5v-5v-5v-5v-5v-5h-5h-5v5v5v5v5h-5v-5v-5v-5v-5h-5h-5h-5v5h5h5v5h-5v5h5v5h5v5v5h-5v-5
			v-5h-5v-5h-5v5v5v5h-5v-5v-5h-5v5h-5v-5h5v-5h5v-5h-5h-5v-5h5h5v-5h-5h-5v-5h5v-5v-5h-5v-5h5h5v-5h5v5h5h5v5v5v5h5v-5v-5v-5h5h5h5
			v5h-5h-5v5v5h5h5h5h5v5h-5v5v5v5v5v5v5H138.198z M108.198,37.219h5v-5v-5h-5h-5v5v5H108.198z M143.198,17.219h5v5h-5h-5v-5
			H143.198z" class="XnXgPPNC_9"></path>
		<path fill="#FFFFFF" d="M175.197,27.219h-5v-5h5V27.219z M175.197,42.219h-5v-5h5V42.219z M170.197,72.219v-5h5v5H170.197z
			 M175.197,32.219v-5h5v5H175.197z M175.197,47.219v-5h5v5H175.197z M175.197,67.219v-5h5v5H175.197z M180.197,62.219v-5h5v5
			H180.197z M190.197,72.219v-5v-5v-5v-5v-5v-5v-5h5h5h5v-5v-5v-5v-5h5v5v5v5v5h5h5h5v5v5v5v5v5v5v5h-5h-5v-5h5v-5h-5h-5h-5h-5h-5v5
			v5H190.197z M195.197,27.219h-5v-5h5V27.219z M195.197,32.219v-5h5v5H195.197z M215.197,47.219h5v-5h-5h-5h-5h-5h-5v5h5h5h5
			H215.197z M215.197,57.219h5v-5h-5h-5h-5h-5h-5v5h5h5h5H215.197z M215.197,32.219v-5h5v5H215.197z M220.197,27.219v-5h5v5H220.197
			z" class="XnXgPPNC_10"></path>
		<path fill="#FFFFFF" d="M247.197,72.219v-5h5v5H247.197z M252.197,67.219v-5h5v5H252.197z M277.197,57.219h-5v-5h-5h-5h-5v-5v-5
			v-5v-5v-5v-5h5h5v-5h5v5h5h5h5h5v5v5v5v5v5v5h-5h-5h-5V57.219z M282.197,32.219h5v-5h-5h-5h-5h-5h-5v5h5h5h5H282.197z
			 M282.197,47.219h5v-5v-5h-5h-5h-5h-5h-5v5v5h5h5h5H282.197z M267.197,67.219h-5v-5v-5h5v5V67.219z M287.197,67.219h5v5h-5h-5h-5
			h-5h-5v-5h5h5h5H287.197z M277.197,62.219v-5h5v5H277.197z M297.197,62.219h-5v-5h5V62.219z M297.197,67.219v-5h5v5H297.197z" class="XnXgPPNC_11"></path>
	</g>
</g>
<style data-made-with="vivus-instant">.XnXgPPNC_0{stroke-dasharray:610 612;stroke-dashoffset:611;animation:XnXgPPNC_draw_0 6700ms ease-in-out 0ms infinite,XnXgPPNC_fade 6700ms linear 0ms infinite;}.XnXgPPNC_1{stroke-dasharray:570 572;stroke-dashoffset:571;animation:XnXgPPNC_draw_1 6700ms ease-in-out 0ms infinite,XnXgPPNC_fade 6700ms linear 0ms infinite;}.XnXgPPNC_2{stroke-dasharray:550 552;stroke-dashoffset:551;animation:XnXgPPNC_draw_2 6700ms ease-in-out 0ms infinite,XnXgPPNC_fade 6700ms linear 0ms infinite;}.XnXgPPNC_3{stroke-dasharray:471 473;stroke-dashoffset:472;animation:XnXgPPNC_draw_3 6700ms ease-in-out 0ms infinite,XnXgPPNC_fade 6700ms linear 0ms infinite;}.XnXgPPNC_4{stroke-dasharray:610 612;stroke-dashoffset:611;animation:XnXgPPNC_draw_4 6700ms ease-in-out 0ms infinite,XnXgPPNC_fade 6700ms linear 0ms infinite;}.XnXgPPNC_5{stroke-dasharray:570 572;stroke-dashoffset:571;animation:XnXgPPNC_draw_5 6700ms ease-in-out 0ms infinite,XnXgPPNC_fade 6700ms linear 0ms infinite;}.XnXgPPNC_6{stroke-dasharray:550 552;stroke-dashoffset:551;animation:XnXgPPNC_draw_6 6700ms ease-in-out 0ms infinite,XnXgPPNC_fade 6700ms linear 0ms infinite;}.XnXgPPNC_7{stroke-dasharray:471 473;stroke-dashoffset:472;animation:XnXgPPNC_draw_7 6700ms ease-in-out 0ms infinite,XnXgPPNC_fade 6700ms linear 0ms infinite;}.XnXgPPNC_8{stroke-dasharray:610 612;stroke-dashoffset:611;animation:XnXgPPNC_draw_8 6700ms ease-in-out 0ms infinite,XnXgPPNC_fade 6700ms linear 0ms infinite;}.XnXgPPNC_9{stroke-dasharray:570 572;stroke-dashoffset:571;animation:XnXgPPNC_draw_9 6700ms ease-in-out 0ms infinite,XnXgPPNC_fade 6700ms linear 0ms infinite;}.XnXgPPNC_10{stroke-dasharray:550 552;stroke-dashoffset:551;animation:XnXgPPNC_draw_10 6700ms ease-in-out 0ms infinite,XnXgPPNC_fade 6700ms linear 0ms infinite;}.XnXgPPNC_11{stroke-dasharray:471 473;stroke-dashoffset:472;animation:XnXgPPNC_draw_11 6700ms ease-in-out 0ms infinite,XnXgPPNC_fade 6700ms linear 0ms infinite;}@keyframes XnXgPPNC_draw{100%{stroke-dashoffset:0;}}@keyframes XnXgPPNC_fade{0%{stroke-opacity:1;}94.02985074626866%{stroke-opacity:1;}100%{stroke-opacity:0;}}@keyframes XnXgPPNC_draw_0{4.477611940298507%{stroke-dashoffset: 611}34.32835820895522%{ stroke-dashoffset: 0;}100%{ stroke-dashoffset: 0;}}@keyframes XnXgPPNC_draw_1{5.834464043419267%{stroke-dashoffset: 571}35.68521031207598%{ stroke-dashoffset: 0;}100%{ stroke-dashoffset: 0;}}@keyframes XnXgPPNC_draw_2{7.191316146540028%{stroke-dashoffset: 551}37.042062415196746%{ stroke-dashoffset: 0;}100%{ stroke-dashoffset: 0;}}@keyframes XnXgPPNC_draw_3{8.548168249660787%{stroke-dashoffset: 472}38.398914518317504%{ stroke-dashoffset: 0;}100%{ stroke-dashoffset: 0;}}@keyframes XnXgPPNC_draw_4{9.905020352781547%{stroke-dashoffset: 611}39.75576662143826%{ stroke-dashoffset: 0;}100%{ stroke-dashoffset: 0;}}@keyframes XnXgPPNC_draw_5{11.261872455902305%{stroke-dashoffset: 571}41.11261872455903%{ stroke-dashoffset: 0;}100%{ stroke-dashoffset: 0;}}@keyframes XnXgPPNC_draw_6{12.618724559023068%{stroke-dashoffset: 551}42.469470827679785%{ stroke-dashoffset: 0;}100%{ stroke-dashoffset: 0;}}@keyframes XnXgPPNC_draw_7{13.975576662143826%{stroke-dashoffset: 472}43.82632293080054%{ stroke-dashoffset: 0;}100%{ stroke-dashoffset: 0;}}@keyframes XnXgPPNC_draw_8{15.332428765264586%{stroke-dashoffset: 611}45.183175033921295%{ stroke-dashoffset: 0;}100%{ stroke-dashoffset: 0;}}@keyframes XnXgPPNC_draw_9{16.689280868385342%{stroke-dashoffset: 571}46.54002713704206%{ stroke-dashoffset: 0;}100%{ stroke-dashoffset: 0;}}@keyframes XnXgPPNC_draw_10{18.046132971506104%{stroke-dashoffset: 551}47.89687924016282%{ stroke-dashoffset: 0;}100%{ stroke-dashoffset: 0;}}@keyframes XnXgPPNC_draw_11{19.402985074626866%{stroke-dashoffset: 472}49.25373134328358%{ stroke-dashoffset: 0;}100%{ stroke-dashoffset: 0;}}</style></svg>
