<!--?xml version="1.0" encoding="utf-8"?-->
<!-- Generator: Adobe Illustrator 16.0.0, SVG Export Plug-In . SVG Version: 6.00 Build 0)  -->

<svg version="1.1" id="圖層_1" xmlns="http://www.w3.org/2000/svg" xmlns:xlink="http://www.w3.org/1999/xlink" x="0px" y="0px" width="310px" height="87.41px" viewBox="0 0 310 87.41" enable-background="new 0 0 310 87.41" xml:space="preserve" style="">
<g>
	<g>
		<path fill="#DFB43F" d="M17,26.763h-5v-5h5V26.763z M17,41.763h-5v-5h5V41.763z M12,71.763v-5h5v5H12z M17,31.763v-5h5v5H17z
			 M17,46.763v-5h5v5H17z M17,66.763v-5h5v5H17z M22,61.763v-5h5v5H22z M62,71.763h-5h-5h-5h-5h-5h-5v-5v-5v-5v-5h5h5h5v-5v-5h-5h-5
			h-5v-5h5h5h5v-5v-5h-5h-5h-5v-5h5h5h5h5v5v5v5h5h5h5v5h-5h-5h-5v5v5h5h5h5v5v5v5v5H62z M57,66.763h5v-5v-5h-5h-5h-5h-5h-5v5v5h5h5
			h5H57z M62,16.763h5v5h-5h-5h-5v-5h5H62z" class="vMqtWEPY_0"></path>
		<path fill="#DFB43F" d="M109,66.763h5v5h-5h-5h-5h-5h-5v-5h5h5v-5h-5h-5v-5h5h5v-5h-5h-5v-5v-5v-5v-5v-5h5h5v-5h-5h-5v-5h5h5h5h5
			h5v5h-5h-5v5h5h5h5h5v-5v-5h5v5v5h5h5h5v5v5v5v5v5v5v5h-5v5h-5v-5h5v-5v-5v-5v-5v-5v-5h-5h-5v5v5v5v5h-5v-5v-5v-5v-5h-5h-5v5v5v5
			v5h-5h-5v5h5h5v5h-5h-5v5H109z M99,36.763v-5h-5v5H99z M99,46.763v-5h-5v5H99z M109,36.763v-5h-5v5H109z M109,46.763v-5h-5v5H109z
			 M119,61.763v-5v-5h5v5v5H119z M129,66.763h5v5h-5h-5v-5H129z" class="vMqtWEPY_1"></path>
		<path fill="#DFB43F" d="M166,51.763v-5v-5h5v5v5H166z M171,41.763v-5v-5h5v5v5H171z M176,31.763v-5v-5h5v5v5H176z M191,66.763h5v5
			h-5h-5h-5h-5v-5v-5h5v5h5H191z M181,61.763v-5v-5h5v5v5H181z M186,51.763v-5v-5h5v5v5H186z M211,31.763h-5v-5v-5h-5h-5h-5v-5h5h5
			h5h5v5v5V31.763z M201,61.763h5v5h-5h-5v-5H201z M211,61.763h-5v-5v-5h5v5V61.763z M216,41.763h-5v-5v-5h5v5V41.763z M211,71.763
			v-5v-5h5v5v5H211z M216,51.763v-5v-5h5v5v5H216z" class="vMqtWEPY_2"></path>
		<path fill="#DFB43F" d="M293,41.763h5v5h-5h-5h-5h-5h-5h-5h-5h-5h-5h-5h-5v-5v-5h5v-5h5v-5v-5v-5h5v5v5h5h5v-5v-5h5v5v5h5h5h5h5v5
			h-5h-5h-5h-5v5v5h5h5h5H293z M263,41.763h5v-5v-5h-5h-5h-5v5h-5v5h5h5H263z M283,71.763h-5h-5h-5h-5h-5h-5v-5v-5v-5v-5h5h5h5h5h5
			h5h5v5v5v5v5H283z M278,66.763h5v-5v-5h-5h-5h-5h-5h-5v5v5h5h5h5H278z" class="vMqtWEPY_3"></path>
	</g>
	<g>
		<path fill="none" stroke="#FFFFFF" stroke-width="7" d="M17,26.763h-5v-5h5V26.763z M17,41.763h-5v-5h5V41.763z M12,71.763v-5h5v5
			H12z M17,31.763v-5h5v5H17z M17,46.763v-5h5v5H17z M17,66.763v-5h5v5H17z M22,61.763v-5h5v5H22z M62,71.763h-5h-5h-5h-5h-5h-5v-5
			v-5v-5v-5h5h5h5v-5v-5h-5h-5h-5v-5h5h5h5v-5v-5h-5h-5h-5v-5h5h5h5h5v5v5v5h5h5h5v5h-5h-5h-5v5v5h5h5h5v5v5v5v5H62z M57,66.763h5
			v-5v-5h-5h-5h-5h-5h-5v5v5h5h5h5H57z M62,16.763h5v5h-5h-5h-5v-5h5H62z" class="vMqtWEPY_4"></path>
		<path fill="none" stroke="#FFFFFF" stroke-width="7" d="M109,66.763h5v5h-5h-5h-5h-5h-5v-5h5h5v-5h-5h-5v-5h5h5v-5h-5h-5v-5v-5v-5
			v-5v-5h5h5v-5h-5h-5v-5h5h5h5h5h5v5h-5h-5v5h5h5h5h5v-5v-5h5v5v5h5h5h5v5v5v5v5v5v5v5h-5v5h-5v-5h5v-5v-5v-5v-5v-5v-5h-5h-5v5v5v5
			v5h-5v-5v-5v-5v-5h-5h-5v5v5v5v5h-5h-5v5h5h5v5h-5h-5v5H109z M99,36.763v-5h-5v5H99z M99,46.763v-5h-5v5H99z M109,36.763v-5h-5v5
			H109z M109,46.763v-5h-5v5H109z M119,61.763v-5v-5h5v5v5H119z M129,66.763h5v5h-5h-5v-5H129z" class="vMqtWEPY_5"></path>
		<path fill="none" stroke="#FFFFFF" stroke-width="7" d="M166,51.763v-5v-5h5v5v5H166z M171,41.763v-5v-5h5v5v5H171z M176,31.763
			v-5v-5h5v5v5H176z M191,66.763h5v5h-5h-5h-5h-5v-5v-5h5v5h5H191z M181,61.763v-5v-5h5v5v5H181z M186,51.763v-5v-5h5v5v5H186z
			 M211,31.763h-5v-5v-5h-5h-5h-5v-5h5h5h5h5v5v5V31.763z M201,61.763h5v5h-5h-5v-5H201z M211,61.763h-5v-5v-5h5v5V61.763z
			 M216,41.763h-5v-5v-5h5v5V41.763z M211,71.763v-5v-5h5v5v5H211z M216,51.763v-5v-5h5v5v5H216z" class="vMqtWEPY_6"></path>
		<path fill="none" stroke="#FFFFFF" stroke-width="7" d="M293,41.763h5v5h-5h-5h-5h-5h-5h-5h-5h-5h-5h-5h-5v-5v-5h5v-5h5v-5v-5v-5
			h5v5v5h5h5v-5v-5h5v5v5h5h5h5h5v5h-5h-5h-5h-5v5v5h5h5h5H293z M263,41.763h5v-5v-5h-5h-5h-5v5h-5v5h5h5H263z M283,71.763h-5h-5h-5
			h-5h-5h-5v-5v-5v-5v-5h5h5h5h5h5h5h5v5v5v5v5H283z M278,66.763h5v-5v-5h-5h-5h-5h-5h-5v5v5h5h5h5H278z" class="vMqtWEPY_7"></path>
	</g>
	<g>
		<path fill="#DFB43F" d="M17,26.763h-5v-5h5V26.763z M17,41.763h-5v-5h5V41.763z M12,71.763v-5h5v5H12z M17,31.763v-5h5v5H17z
			 M17,46.763v-5h5v5H17z M17,66.763v-5h5v5H17z M22,61.763v-5h5v5H22z M62,71.763h-5h-5h-5h-5h-5h-5v-5v-5v-5v-5h5h5h5v-5v-5h-5h-5
			h-5v-5h5h5h5v-5v-5h-5h-5h-5v-5h5h5h5h5v5v5v5h5h5h5v5h-5h-5h-5v5v5h5h5h5v5v5v5v5H62z M57,66.763h5v-5v-5h-5h-5h-5h-5h-5v5v5h5h5
			h5H57z M62,16.763h5v5h-5h-5h-5v-5h5H62z" class="vMqtWEPY_8"></path>
		<path fill="#DFB43F" d="M109,66.763h5v5h-5h-5h-5h-5h-5v-5h5h5v-5h-5h-5v-5h5h5v-5h-5h-5v-5v-5v-5v-5v-5h5h5v-5h-5h-5v-5h5h5h5h5
			h5v5h-5h-5v5h5h5h5h5v-5v-5h5v5v5h5h5h5v5v5v5v5v5v5v5h-5v5h-5v-5h5v-5v-5v-5v-5v-5v-5h-5h-5v5v5v5v5h-5v-5v-5v-5v-5h-5h-5v5v5v5
			v5h-5h-5v5h5h5v5h-5h-5v5H109z M99,36.763v-5h-5v5H99z M99,46.763v-5h-5v5H99z M109,36.763v-5h-5v5H109z M109,46.763v-5h-5v5H109z
			 M119,61.763v-5v-5h5v5v5H119z M129,66.763h5v5h-5h-5v-5H129z" class="vMqtWEPY_9"></path>
		<path fill="#DFB43F" d="M166,51.763v-5v-5h5v5v5H166z M171,41.763v-5v-5h5v5v5H171z M176,31.763v-5v-5h5v5v5H176z M191,66.763h5v5
			h-5h-5h-5h-5v-5v-5h5v5h5H191z M181,61.763v-5v-5h5v5v5H181z M186,51.763v-5v-5h5v5v5H186z M211,31.763h-5v-5v-5h-5h-5h-5v-5h5h5
			h5h5v5v5V31.763z M201,61.763h5v5h-5h-5v-5H201z M211,61.763h-5v-5v-5h5v5V61.763z M216,41.763h-5v-5v-5h5v5V41.763z M211,71.763
			v-5v-5h5v5v5H211z M216,51.763v-5v-5h5v5v5H216z" class="vMqtWEPY_10"></path>
		<path fill="#DFB43F" d="M293,41.763h5v5h-5h-5h-5h-5h-5h-5h-5h-5h-5h-5h-5v-5v-5h5v-5h5v-5v-5v-5h5v5v5h5h5v-5v-5h5v5v5h5h5h5h5v5
			h-5h-5h-5h-5v5v5h5h5h5H293z M263,41.763h5v-5v-5h-5h-5h-5v5h-5v5h5h5H263z M283,71.763h-5h-5h-5h-5h-5h-5v-5v-5v-5v-5h5h5h5h5h5
			h5h5v5v5v5v5H283z M278,66.763h5v-5v-5h-5h-5h-5h-5h-5v5v5h5h5h5H278z" class="vMqtWEPY_11"></path>
	</g>
</g>
<style data-made-with="vivus-instant">.vMqtWEPY_0{stroke-dasharray:510 512;stroke-dashoffset:511;animation:vMqtWEPY_draw_0 6700ms ease-in-out 0ms infinite,vMqtWEPY_fade 6700ms linear 0ms infinite;}.vMqtWEPY_1{stroke-dasharray:620 622;stroke-dashoffset:621;animation:vMqtWEPY_draw_1 6700ms ease-in-out 0ms infinite,vMqtWEPY_fade 6700ms linear 0ms infinite;}.vMqtWEPY_2{stroke-dasharray:430 432;stroke-dashoffset:431;animation:vMqtWEPY_draw_2 6700ms ease-in-out 0ms infinite,vMqtWEPY_fade 6700ms linear 0ms infinite;}.vMqtWEPY_3{stroke-dasharray:470 472;stroke-dashoffset:471;animation:vMqtWEPY_draw_3 6700ms ease-in-out 0ms infinite,vMqtWEPY_fade 6700ms linear 0ms infinite;}.vMqtWEPY_4{stroke-dasharray:510 512;stroke-dashoffset:511;animation:vMqtWEPY_draw_4 6700ms ease-in-out 0ms infinite,vMqtWEPY_fade 6700ms linear 0ms infinite;}.vMqtWEPY_5{stroke-dasharray:620 622;stroke-dashoffset:621;animation:vMqtWEPY_draw_5 6700ms ease-in-out 0ms infinite,vMqtWEPY_fade 6700ms linear 0ms infinite;}.vMqtWEPY_6{stroke-dasharray:430 432;stroke-dashoffset:431;animation:vMqtWEPY_draw_6 6700ms ease-in-out 0ms infinite,vMqtWEPY_fade 6700ms linear 0ms infinite;}.vMqtWEPY_7{stroke-dasharray:470 472;stroke-dashoffset:471;animation:vMqtWEPY_draw_7 6700ms ease-in-out 0ms infinite,vMqtWEPY_fade 6700ms linear 0ms infinite;}.vMqtWEPY_8{stroke-dasharray:510 512;stroke-dashoffset:511;animation:vMqtWEPY_draw_8 6700ms ease-in-out 0ms infinite,vMqtWEPY_fade 6700ms linear 0ms infinite;}.vMqtWEPY_9{stroke-dasharray:620 622;stroke-dashoffset:621;animation:vMqtWEPY_draw_9 6700ms ease-in-out 0ms infinite,vMqtWEPY_fade 6700ms linear 0ms infinite;}.vMqtWEPY_10{stroke-dasharray:430 432;stroke-dashoffset:431;animation:vMqtWEPY_draw_10 6700ms ease-in-out 0ms infinite,vMqtWEPY_fade 6700ms linear 0ms infinite;}.vMqtWEPY_11{stroke-dasharray:470 472;stroke-dashoffset:471;animation:vMqtWEPY_draw_11 6700ms ease-in-out 0ms infinite,vMqtWEPY_fade 6700ms linear 0ms infinite;}@keyframes vMqtWEPY_draw{100%{stroke-dashoffset:0;}}@keyframes vMqtWEPY_fade{0%{stroke-opacity:1;}94.02985074626866%{stroke-opacity:1;}100%{stroke-opacity:0;}}@keyframes vMqtWEPY_draw_0{4.477611940298507%{stroke-dashoffset: 511}34.32835820895522%{ stroke-dashoffset: 0;}100%{ stroke-dashoffset: 0;}}@keyframes vMqtWEPY_draw_1{5.834464043419267%{stroke-dashoffset: 621}35.68521031207598%{ stroke-dashoffset: 0;}100%{ stroke-dashoffset: 0;}}@keyframes vMqtWEPY_draw_2{7.191316146540028%{stroke-dashoffset: 431}37.042062415196746%{ stroke-dashoffset: 0;}100%{ stroke-dashoffset: 0;}}@keyframes vMqtWEPY_draw_3{8.548168249660787%{stroke-dashoffset: 471}38.398914518317504%{ stroke-dashoffset: 0;}100%{ stroke-dashoffset: 0;}}@keyframes vMqtWEPY_draw_4{9.905020352781547%{stroke-dashoffset: 511}39.75576662143826%{ stroke-dashoffset: 0;}100%{ stroke-dashoffset: 0;}}@keyframes vMqtWEPY_draw_5{11.261872455902305%{stroke-dashoffset: 621}41.11261872455903%{ stroke-dashoffset: 0;}100%{ stroke-dashoffset: 0;}}@keyframes vMqtWEPY_draw_6{12.618724559023068%{stroke-dashoffset: 431}42.469470827679785%{ stroke-dashoffset: 0;}100%{ stroke-dashoffset: 0;}}@keyframes vMqtWEPY_draw_7{13.975576662143826%{stroke-dashoffset: 471}43.82632293080054%{ stroke-dashoffset: 0;}100%{ stroke-dashoffset: 0;}}@keyframes vMqtWEPY_draw_8{15.332428765264586%{stroke-dashoffset: 511}45.183175033921295%{ stroke-dashoffset: 0;}100%{ stroke-dashoffset: 0;}}@keyframes vMqtWEPY_draw_9{16.689280868385342%{stroke-dashoffset: 621}46.54002713704206%{ stroke-dashoffset: 0;}100%{ stroke-dashoffset: 0;}}@keyframes vMqtWEPY_draw_10{18.046132971506104%{stroke-dashoffset: 431}47.89687924016282%{ stroke-dashoffset: 0;}100%{ stroke-dashoffset: 0;}}@keyframes vMqtWEPY_draw_11{19.402985074626866%{stroke-dashoffset: 471}49.25373134328358%{ stroke-dashoffset: 0;}100%{ stroke-dashoffset: 0;}}</style></svg>
